<svg width="24" height="24" viewBox="0 0 24 24" fill="none" xmlns="http://www.w3.org/2000/svg"><path d="M7.5 16s0 5-3.5 5m12.5-5s0 5 3.5 5m-8-5v5.3" stroke="#1A1A1A" stroke-width="1.4" stroke-linecap="square" stroke-linejoin="round"/><path d="M2.7 2.8a.1.1 0 0 1 .1-.1h18.4a.1.1 0 0 1 .1.1v6.839a.1.1 0 0 1-.032.072l-2.73 2.562a.1.1 0 0 1-.068.027H5.53a.1.1 0 0 1-.069-.027L2.731 9.71a.1.1 0 0 1-.031-.07V2.8Z" stroke="#1A1A1A" stroke-width="1.4" stroke-linejoin="round"/><path d="M16.5 6H19M5.5 9h13" stroke="#1A1A1A" stroke-width="1.4"/></svg>