<svg width="28" height="28" viewBox="0 0 28 28" fill="none" xmlns="http://www.w3.org/2000/svg"><path d="M11.082 21a3.001 3.001 0 0 0 5.836 0" stroke="#1A1A1A" stroke-width="1.4"/><path d="M6.827 12.842c0-3.944 3.209-7.142 7.167-7.142 3.959 0 7.167 3.198 7.167 7.142v4.686l.777 3.124a.2.2 0 0 1-.194.248H6.254a.2.2 0 0 1-.195-.246c.17-.707.658-2.723.768-3.119v-4.693ZM14 4v1.8" stroke="#1A1A1A" stroke-width="1.4" stroke-linejoin="round"/><circle cx="21" cy="7" r="7" fill="#FA4E3E"/><path fill-rule="evenodd" clip-rule="evenodd" d="M19.515 4.526A.7.7 0 0 0 18.3 5v4.702h1.4V6.693l2.769 2.777a.7.7 0 0 0 .111.09.7.7 0 0 0 1.122-.559v-4.7h-1.4V7.32l-2.765-2.773a.743.743 0 0 0-.022-.021Z" fill="white"/></svg>