<svg width="24" height="24" viewBox="0 0 24 24" fill="none" xmlns="http://www.w3.org/2000/svg">
<path d="M9.08209 19C9.39741 20.3192 10.5842 21.3 12 21.3C13.4158 21.3 14.6026 20.3192 14.9179 19" stroke="#1A1A1A" stroke-width="1.4"/>
<path d="M4.82662 10.8422C4.82662 6.89767 8.03557 3.70001 11.994 3.70001C15.9525 3.70001 19.1614 6.89767 19.1614 10.8422V15.528L19.9383 18.6517C19.9696 18.7779 19.8742 18.9 19.7442 18.9H4.25381C4.12443 18.9 4.02883 18.7802 4.05916 18.6544C4.22971 17.9473 4.71713 15.9313 4.82662 15.5352V10.8422Z" stroke="#1A1A1A" stroke-width="1.4" stroke-linejoin="round"/>
<path d="M12 2V3.8" stroke="#1A1A1A" stroke-width="1.4" stroke-linejoin="round"/>
<path d="M3.79999 3.79999L20.8 20.8" stroke="#1A1A1A" stroke-width="1.68"/>
</svg>
