<svg width="56" height="56" viewBox="0 0 56 56" fill="none" xmlns="http://www.w3.org/2000/svg">
<g clip-path="url(#clip0_2407_3535)">
<path d="M6.25 17.2264C6.25 16.2599 7.0335 15.4764 8 15.4764H19.5C20.4665 15.4764 21.25 16.2599 21.25 17.2264V45.4764H6.25V17.2264Z" fill="#FFC8A3"/>
<path d="M9.25 20.4764H13.25V24.4764H9.25V20.4764Z" fill="white"/>
<path d="M14.25 27.4764H18.25V31.4764H14.25V27.4764Z" fill="white"/>
<path d="M35.25 17.2264C35.25 16.2599 36.0335 15.4764 37 15.4764H48.5C49.4665 15.4764 50.25 16.2599 50.25 17.2264V45.4764H35.25V17.2264Z" fill="#FFC8A3"/>
<path d="M38.25 20.4764H42.25V24.4764H38.25V20.4764Z" fill="white"/>
<path d="M43.25 27.4764H47.25V31.4764H43.25V27.4764Z" fill="white"/>
<path d="M18.2498 12.2264C18.2498 11.2599 19.0333 10.4764 19.9998 10.4764H36.4998C37.4663 10.4764 38.2498 11.2599 38.2498 12.2264V45.4764H18.2498V12.2264Z" fill="#FF6905"/>
<path d="M22.2498 31.4764H26.2498V35.4764H22.2498V31.4764Z" fill="white"/>
<path d="M22.2498 23.4764H26.2498V27.4764H22.2498V23.4764Z" fill="white"/>
<path d="M30.2498 31.4764H34.2498V35.4764H30.2498V31.4764Z" fill="white"/>
<path d="M22.2498 15.4764H26.2498V19.4764H22.2498V15.4764Z" fill="white"/>
<path d="M30.2498 15.4764H34.2498V19.4764H30.2498V15.4764Z" fill="white"/>
<path d="M30.2498 23.4764H34.2498V27.4764H30.2498V23.4764Z" fill="white"/>
<path d="M2.25 45.4764L4.5548 36.4846C5.00439 34.7306 7.49561 34.7306 7.9452 36.4846L10.25 45.4764H2.25Z" fill="#1F9B38"/>
<path d="M46.75 45.4764L48.5734 39.381C49.0714 37.7164 51.4286 37.7164 51.9266 39.381L53.75 45.4764H46.75Z" fill="#1F9B38"/>
<path d="M22.25 41.5236C22.25 43.7328 20.4591 45.5236 18.25 45.5236C16.0409 45.5236 14.25 43.7328 14.25 41.5236C14.25 39.3145 16.0409 37.5236 18.25 37.5236C20.4591 37.5236 22.25 39.3145 22.25 41.5236Z" fill="#1F9B38"/>
</g>
<defs>
<clipPath id="clip0_2407_3535">
<rect width="56" height="56" fill="white"/>
</clipPath>
</defs>
</svg>
