<svg width="28" height="28" viewBox="0 0 28 28" fill="none" xmlns="http://www.w3.org/2000/svg">
<path fill-rule="evenodd" clip-rule="evenodd" d="M4.5 2C4.22386 2 4 2.22386 4 2.5V27H11.5V22.5C11.5 22.2239 11.7239 22 12 22H16C16.2761 22 16.5 22.2239 16.5 22.5V27H24V2.5C24 2.22386 23.7761 2 23.5 2H4.5ZM9.83329 9.16668C9.83329 8.89053 10.0571 8.66668 10.3333 8.66668H12.1111C12.3872 8.66668 12.6111 8.89053 12.6111 9.16668V10.9445C12.6111 11.2206 12.3872 11.4445 12.1111 11.4445H10.3333C10.0571 11.4445 9.83329 11.2206 9.83329 10.9445V9.16668ZM10.3333 14.2222C10.0571 14.2222 9.83329 14.4461 9.83329 14.7222V16.5C9.83329 16.7761 10.0571 17 10.3333 17H12.1111C12.3872 17 12.6111 16.7761 12.6111 16.5V14.7222C12.6111 14.4461 12.3872 14.2222 12.1111 14.2222H10.3333ZM15.3889 9.16668C15.3889 8.89053 15.6128 8.66668 15.8889 8.66668H17.6667C17.9428 8.66668 18.1667 8.89053 18.1667 9.16668V10.9445C18.1667 11.2206 17.9428 11.4445 17.6667 11.4445H15.8889C15.6128 11.4445 15.3889 11.2206 15.3889 10.9445V9.16668ZM15.8889 14.2222C15.6128 14.2222 15.3889 14.4461 15.3889 14.7222V16.5C15.3889 16.7761 15.6128 17 15.8889 17H17.6667C17.9428 17 18.1667 16.7761 18.1667 16.5V14.7222C18.1667 14.4461 17.9428 14.2222 17.6667 14.2222H15.8889Z" fill="#1A1A1A"/>
</svg>
