<svg width="48" height="48" viewBox="0 0 48 48" fill="none" xmlns="http://www.w3.org/2000/svg"><circle cx="24" cy="24" r="24" fill="#FFF7F0"/><path fill-rule="evenodd" clip-rule="evenodd" d="M15.5 13a.5.5 0 0 0-.5.5V35h7v-3.5a.5.5 0 0 1 .5-.5h3a.5.5 0 0 1 .5.5V35h7V13.5a.5.5 0 0 0-.5-.5h-17Zm4.75 6.5a.5.5 0 0 1 .5-.5h1.5a.5.5 0 0 1 .5.5V21a.5.5 0 0 1-.5.5h-1.5a.5.5 0 0 1-.5-.5v-1.5Zm.5 4.5a.5.5 0 0 0-.5.5V26a.5.5 0 0 0 .5.5h1.5a.5.5 0 0 0 .5-.5v-1.5a.5.5 0 0 0-.5-.5h-1.5Zm4.5-4.5a.5.5 0 0 1 .5-.5h1.5a.5.5 0 0 1 .5.5V21a.5.5 0 0 1-.5.5h-1.5a.5.5 0 0 1-.5-.5v-1.5Zm.5 4.5a.5.5 0 0 0-.5.5V26a.5.5 0 0 0 .5.5h1.5a.5.5 0 0 0 .5-.5v-1.5a.5.5 0 0 0-.5-.5h-1.5Z" fill="#FF6905"/></svg>