<svg width="98" height="22" viewBox="0 0 98 22" fill="none" xmlns="http://www.w3.org/2000/svg">
<path d="M64.3422 7.67489H63.171L62.7168 10.9257H63.888C64.4491 10.9213 64.9167 10.7743 65.2685 10.4804C65.6247 10.1865 65.8385 9.79016 65.9008 9.2825C65.9765 8.77929 65.8741 8.39186 65.598 8.10685C65.3263 7.81739 64.9033 7.67489 64.3422 7.67044V7.67489Z" fill="#1A1A1A"/>
<path d="M74.9135 7.67489H73.7423L73.3415 10.5472H74.5127C75.7061 10.5472 76.3652 10.0796 76.4899 9.14C76.5656 8.64124 76.4676 8.27608 76.1871 8.04006C75.9154 7.79513 75.4879 7.67489 74.909 7.67044L74.9135 7.67489Z" fill="#1A1A1A"/>
<path d="M92.8869 3.0524H58.5126C57.6131 3.0524 56.8872 3.6892 56.7848 4.57094L55.3776 16.4165C55.2396 17.5698 56.2014 18.6431 57.3815 18.6431H91.7558C92.6553 18.6431 93.3812 18.0062 93.4836 17.1245L94.8908 5.279C95.0289 4.12562 94.067 3.0524 92.8869 3.0524ZM69.0489 9.28688C68.9376 10.0929 68.6615 10.7921 68.2206 11.3977C67.7798 11.9989 67.2098 12.4665 66.5106 12.7871C65.8115 13.1122 65.0321 13.268 64.1682 13.268H62.3958L61.9149 16.7148H58.9134L60.5032 5.27455H65.3706C66.2122 5.27455 66.9337 5.44377 67.5215 5.77776C68.1138 6.11175 68.5457 6.58378 68.8129 7.18942C69.0756 7.79506 69.1558 8.49421 69.0489 9.29133V9.28688ZM79.6386 9.14438C79.5318 9.92369 79.2646 10.5917 78.846 11.1439C78.4363 11.7005 77.8885 12.1236 77.2205 12.4175L78.9617 16.7104H75.6931L74.1879 12.9029H73.0123L72.4868 16.7104H69.4853L71.0751 5.27009H75.9425C76.793 5.27009 77.5145 5.43041 78.1112 5.73768C78.7079 6.0494 79.1399 6.49472 79.4026 7.07809C79.6743 7.66146 79.75 8.34725 79.6386 9.14438ZM91.4441 10.9925C91.2748 12.2215 90.883 13.2859 90.2729 14.172C89.6672 15.0538 88.9146 15.7262 88.0151 16.1849C87.1156 16.6436 86.1403 16.8751 85.0938 16.8751C84.0473 16.8751 83.1299 16.6436 82.3551 16.1849C81.5847 15.7218 81.0102 15.0493 80.6495 14.1631C80.2888 13.2725 80.1953 12.2215 80.3645 10.9925C80.5337 9.75892 80.9256 8.70351 81.5312 7.81732C82.1369 6.93114 82.8939 6.2587 83.7979 5.80447C84.6975 5.34579 85.6772 5.11423 86.7237 5.11423C87.7702 5.11423 88.6786 5.34579 89.4535 5.80447C90.2239 6.2587 90.7894 6.93114 91.1546 7.81732C91.5153 8.69906 91.6088 9.75892 91.4396 10.9925H91.4441Z" fill="#1A1A1A"/>
<path d="M86.3684 7.74176C85.5757 7.74176 84.9345 8.01786 84.4357 8.57896C83.9369 9.13561 83.6163 9.9461 83.4738 10.9926C83.3269 12.0436 83.4248 12.8451 83.7677 13.4018C84.1106 13.9629 84.6762 14.2434 85.4644 14.2523C86.2526 14.2479 86.8983 13.9629 87.3971 13.4018C87.8958 12.8451 88.2165 12.0436 88.3545 10.9926C88.5059 9.94164 88.408 9.13561 88.0651 8.57896C87.7222 8.01786 87.1522 7.74176 86.3684 7.74176Z" fill="#1A1A1A"/>
<path d="M12.4807 13.6332C12.4807 14.2522 12.4095 14.84 12.267 15.3967C12.12 15.9533 11.8618 16.4387 11.4921 16.8573C11.1225 17.2759 10.6238 17.6055 10.0003 17.8504C9.37686 18.0953 8.58866 18.22 7.63122 18.22C6.62034 18.22 5.80986 18.0953 5.19532 17.8504C4.57632 17.6055 4.09983 17.2715 3.76139 16.8484C3.42294 16.4254 3.19137 15.9355 3.07113 15.3744C2.95089 14.8133 2.89301 14.2166 2.89301 13.5887V7.97765C2.89301 7.40319 2.95089 6.84208 3.07113 6.30325C3.18691 5.76441 3.41849 5.28346 3.76139 4.86041C4.09983 4.43736 4.58077 4.10336 5.19532 3.84953C5.80986 3.60015 6.62034 3.47546 7.63122 3.47546C8.58866 3.47546 9.37686 3.60015 10.0003 3.84953C10.6238 4.09891 11.1181 4.4329 11.4921 4.8515C11.8618 5.26565 12.12 5.75105 12.267 6.29434C12.4095 6.84208 12.4807 7.40319 12.4807 7.97765V13.6377V13.6332ZM9.34569 7.45663C9.34569 7.10482 9.29226 6.82427 9.18538 6.61497C9.0785 6.41012 8.94491 6.24535 8.78014 6.12957C8.61982 6.01379 8.43724 5.93363 8.23685 5.89801C8.03645 5.85793 7.84497 5.84011 7.65348 5.84011C7.4798 5.84011 7.29723 5.85793 7.10129 5.89801C6.9098 5.93363 6.73166 6.00934 6.5758 6.12067C6.41994 6.232 6.28635 6.39676 6.17947 6.61052C6.07259 6.82427 6.01915 7.11373 6.01915 7.47444V14.1899C6.01915 14.555 6.07259 14.84 6.17947 15.0538C6.28635 15.2675 6.41548 15.4323 6.5758 15.5525C6.73166 15.6683 6.90534 15.744 7.10129 15.7841C7.29723 15.8197 7.4798 15.8375 7.65348 15.8375C7.84051 15.8375 8.03645 15.8197 8.23685 15.7841C8.43724 15.744 8.61982 15.6683 8.78014 15.5436C8.94491 15.4234 9.0785 15.2542 9.18538 15.0404C9.29226 14.8267 9.34569 14.5417 9.34569 14.1899V7.45663ZM13.7855 3.54671H16.9206V9.17111H19.0715V11.607H16.9206V18.131H13.7855V3.54226V3.54671Z" fill="#1A1A1A"/>
<path d="M37.3123 15.793H52.5378V18.2289H37.3123V15.793ZM51.5938 13.8871H38.2386V3.54672H51.5938V5.98262H41.3736V7.48781H51.5938V9.92371H41.3736V11.3665H51.5938V13.8826V13.8871Z" fill="#1A1A1A"/>
<path d="M34.3642 9.17557V3.54672H31.2291V18.1354H34.3642V11.6115H36.5151V9.17557H34.3642Z" fill="#1A1A1A"/>
<path d="M30.0577 5.98262V3.54672H19.9757V5.98262H21.2983V15.6995H19.9757V18.1354H30.0577V15.6995H28.7351V5.98262H30.0577ZM25.6001 15.6995H24.4334V5.98262H25.6001V15.6995Z" fill="#1A1A1A"/>
</svg>
