<svg width="24" height="24" viewBox="0 0 24 24" fill="none" xmlns="http://www.w3.org/2000/svg"><path d="M5 11.5V11c.001-.53.165-1.038.457-1.413.291-.374.686-.585 1.099-.587h3.888c.413.002.808.213 1.1.587.29.375.455.883.456 1.413m0 0v.5m0-.5c.001-.53.165-1.038.457-1.413.291-.374.686-.585 1.099-.587h3.888c.413.002.808.213 1.1.587.29.375.455.883.456 1.413v.5" stroke="#1A1A1A" stroke-width="1.4" stroke-linecap="square" stroke-linejoin="bevel"/><path d="M21.3 20.3V12a.5.5 0 0 0-.5-.5H3.2a.5.5 0 0 0-.5.5v8.3" stroke="#1A1A1A" stroke-width="1.4" stroke-linecap="square"/><path d="M3 18h18" stroke="#1A1A1A" stroke-width="1.4"/><path d="M19.233 11.5V4.202a.5.5 0 0 0-.5-.5H5.268a.5.5 0 0 0-.5.5V11.5" stroke="#1A1A1A" stroke-width="1.4" stroke-linecap="round"/></svg>