<svg width="24" height="24" viewBox="0 0 24 24" fill="none" xmlns="http://www.w3.org/2000/svg"><path d="M3 6.64a.1.1 0 0 1 .132-.094l8.8 2.94A.1.1 0 0 1 12 9.58v10.815a.1.1 0 0 1-.132.095l-8.8-2.94A.1.1 0 0 1 3 17.456V6.64Z" stroke="#1A1A1A" stroke-width="1.4" stroke-linejoin="round"/><path d="M21 6.64a.1.1 0 0 0-.132-.094l-8.8 2.94A.1.1 0 0 0 12 9.58v10.815a.1.1 0 0 0 .132.095l8.8-2.94a.1.1 0 0 0 .068-.095V6.64Z" stroke="#1A1A1A" stroke-width="1.4" stroke-linejoin="round"/><path d="M12.032 3.505a.1.1 0 0 0-.064 0L3.284 6.407a.1.1 0 0 0 0 .19l8.684 2.901a.1.1 0 0 0 .064 0l8.684-2.901a.1.1 0 0 0 0-.19l-8.684-2.902Z" stroke="#1A1A1A" stroke-width="1.4" stroke-linejoin="round"/><path d="m8 4.998 9 3.007v4.51" stroke="#1A1A1A" stroke-width="1.4" stroke-linecap="round" stroke-linejoin="round"/></svg>