<svg width="21" height="20" viewBox="0 0 21 20" fill="none" xmlns="http://www.w3.org/2000/svg">
<path d="M5.32771 10.6642C6.48509 12.4817 8.02929 14.0226 9.85067 15.1775C12.2448 16.7267 15.0668 17.6042 17.9205 17.4902C17.965 17.4884 18 17.4517 18 17.4072V12.5618C18 12.5233 17.9749 12.4901 17.9374 12.4812C16.7645 12.2025 14.1212 11.6837 13.777 11.6164C13.753 11.6117 13.7287 11.6179 13.7097 11.6331L12.0808 12.9309C12.0542 12.9521 12.0173 12.955 11.9878 12.9381C10.1389 11.8776 8.60478 10.3468 7.54194 8.50187C7.52489 8.47227 7.52781 8.43525 7.54915 8.40859L8.84969 6.78337C8.86489 6.76437 8.87112 6.74017 8.86657 6.71627C8.80073 6.37034 8.29083 3.70085 8.01991 2.5652C8.01099 2.5278 7.97783 2.50281 7.93939 2.50281H3.093C3.04848 2.50281 3.01179 2.53784 3.01001 2.58232C2.89535 5.44075 3.77198 8.26792 5.32771 10.6642Z" stroke="#1A1A1A" stroke-width="1.4" stroke-linecap="round"/>
<path d="M13.5989 4.02844L13.5989 7.94511C13.5989 7.99113 13.6362 8.02844 13.6822 8.02844L17.5989 8.02844" stroke="#1A1A1A" stroke-width="1.4" stroke-linecap="round"/>
<path d="M13.8499 7.78497L18.1356 3.49926" stroke="#1A1A1A" stroke-width="1.4" stroke-linecap="round"/>
</svg>
