<svg width="24" height="24" viewBox="0 0 24 24" fill="none" xmlns="http://www.w3.org/2000/svg">
<path d="M5.793 12.797C7.182 14.978 9.035 16.827 11.221 18.213C14.094 20.072 17.48 21.125 20.905 20.988C20.958 20.986 21 20.942 21 20.889V15.074C21 15.028 20.97 14.988 20.925 14.977C19.517 14.643 16.345 14.02 15.932 13.94C15.904 13.934 15.875 13.941 15.852 13.96L13.897 15.517C13.865 15.542 13.821 15.546 13.785 15.526C11.567 14.253 9.726 12.416 8.45 10.202C8.43 10.167 8.433 10.123 8.459 10.09L10.02 8.14C10.038 8.117 10.045 8.088 10.04 8.06C9.962 7.644 9.35 4.441 9.024 3.078C9.013 3.033 8.973 3.003 8.927 3.003H3.112C3.058 3.003 3.014 3.045 3.012 3.099C2.874 6.529 3.927 9.921 5.793 12.797Z" vector-effect="non-scaling-stroke" stroke="#1A1A1A" stroke-width="1.4" stroke-linecap="round"/>
<path d="M15.719 4.834L15.719 9.534C15.719 9.578 15.755 9.614 15.799 9.614L20.519 9.614" vector-effect="non-scaling-stroke" stroke="#1A1A1A" stroke-width="1.4" stroke-linecap="round"/>
<path d="M16.02 9.342L21.163 4.199" vector-effect="non-scaling-stroke" stroke="#1A1A1A" stroke-width="1.4" stroke-linecap="round"/>
</svg>
