<svg width="40" height="40" viewBox="0 0 40 40" fill="none" xmlns="http://www.w3.org/2000/svg">
<circle cx="20" cy="20" r="20" fill="#FFF7F0"/>
<path d="M13.7932 20.7937C15.1821 22.9747 17.0352 24.8237 19.2208 26.2096C22.0937 28.0687 25.4801 29.1216 28.9046 28.9849C28.958 28.9827 29 28.9387 29 28.8853V23.0708C29 23.0246 28.9699 22.9847 28.9249 22.974C27.5175 22.6396 24.3454 22.0171 23.9323 21.9363C23.9036 21.9306 23.8745 21.9381 23.8516 21.9563L21.897 23.5137C21.8651 23.5392 21.8208 23.5426 21.7854 23.5223C19.5667 22.2497 17.7257 20.4128 16.4503 18.1989C16.4299 18.1634 16.4334 18.1189 16.459 18.0869L18.0196 16.1367C18.0379 16.1139 18.0453 16.0848 18.0399 16.0562C17.9609 15.641 17.349 12.4377 17.0239 11.0749C17.0132 11.03 16.9734 11 16.9273 11H11.1116C11.0582 11 11.0142 11.042 11.012 11.0954C10.8744 14.5255 11.9264 17.9181 13.7932 20.7937Z" fill="#FF6905" stroke="#FF6905" stroke-width="0.925714" stroke-linecap="round"/>
</svg>
