<svg width="24" height="24" viewBox="0 0 24 24" fill="none" xmlns="http://www.w3.org/2000/svg"><path d="M5 14h3m8 0h3m-16.3-.3a3.4 3.4 0 0 1 3.4-3.4h11.8a3.4 3.4 0 0 1 3.4 3.4v3.5a.1.1 0 0 1-.1.1H2.8a.1.1 0 0 1-.1-.1v-3.5Z" stroke="#1A1A1A" stroke-width="1.4"/><path d="M6.473 3.771a.1.1 0 0 1 .095-.071h10.864a.1.1 0 0 1 .095.071L19.5 10.3h-15l1.973-6.529ZM4.1 17.3h2.6V19a1.3 1.3 0 1 1-2.6 0v-1.7Zm13.2 0h2.6V19a1.3 1.3 0 1 1-2.6 0v-1.7Z" stroke="#1A1A1A" stroke-width="1.4"/><path d="M2.7 10.3H4m16 0h1.3" stroke="#1A1A1A" stroke-width="1.4" stroke-linecap="square"/></svg>