<svg width="24" height="24" viewBox="0 0 24 24" fill="none" xmlns="http://www.w3.org/2000/svg"><path d="M15 14.5V18l6 3" stroke="#1A1A1A" stroke-width="1.4" stroke-linecap="square" stroke-linejoin="round"/><path d="M5 4.7H2.8a.1.1 0 0 0-.1.1v8.4a.1.1 0 0 0 .1.1h3.7" stroke="#1A1A1A" stroke-width="1.4"/><path d="M4.721 2.818a.1.1 0 0 1 .098-.118H21.2a.1.1 0 0 1 .1.1v11.4a.1.1 0 0 1-.1.1H6.859a.1.1 0 0 1-.099-.082l-2.039-11.4Z" stroke="#1A1A1A" stroke-width="1.4" stroke-linejoin="round"/><path d="M13 11h6" stroke="#1A1A1A" stroke-width="1.4"/></svg>