<svg width="48" height="48" viewBox="0 0 48 48" fill="none" xmlns="http://www.w3.org/2000/svg">
<path d="M0 12C0 8.46535 2.86538 5.59998 6.4 5.59998H41.6C45.1346 5.59998 48 8.46535 48 12V40C48 44.4183 44.4183 48 40 48H6.4C2.86538 48 0 45.1346 0 41.6V12Z" fill="#21B45E"/>
<rect x="13.6" y="33.6" width="9.6" height="1.6" fill="white" fill-opacity="0.5"/>
<rect x="11.2" y="38.4" width="14.4" height="1.6" fill="white" fill-opacity="0.5"/>
<path fill-rule="evenodd" clip-rule="evenodd" d="M18.7408 13.7248C18.5081 13.5585 18.1955 13.5585 17.9628 13.7248L10.6808 18.9262C10.151 19.3046 10.4187 20.1401 11.0699 20.1401H12.3281V28.2787C12.3281 28.6484 12.6278 28.948 12.9975 28.948H23.7066C24.0763 28.948 24.376 28.6484 24.376 28.2787V20.1401H25.6337C26.2849 20.1401 26.5526 19.3046 26.0228 18.9262L18.7408 13.7248ZM15.0051 22.3013H17.0131V24.3092H15.0051V22.3013ZM21.699 22.3013H19.691V24.3092H21.699V22.3013Z" fill="white"/>
<path fill-rule="evenodd" clip-rule="evenodd" d="M48 40V8V7.2H47.9605C47.5591 3.15734 44.1483 0 40 0C35.8517 0 32.4409 3.15734 32.0395 7.2H32V8V40C32 35.5817 35.5817 32 40 32C44.4183 32 48 35.5817 48 40Z" fill="#CEDFDE"/>
</svg>
