<svg width="24" height="24" viewBox="0 0 24 24" fill="none" xmlns="http://www.w3.org/2000/svg"><path d="M21.13 20.263a.1.1 0 0 0 .117-.129l-.896-2.78a5.636 5.636 0 0 0 .835-4.182c-.282-1.441-1.123-2.739-2.368-3.652-1.244-.914-2.807-1.38-4.398-1.314-1.59.067-3.1.663-4.249 1.676-1.149 1.014-1.858 2.377-1.996 3.836-.138 1.459.304 2.914 1.245 4.095.941 1.181 2.317 2.008 3.87 2.326a7.077 7.077 0 0 0 4.579-.594l3.26.718Z" stroke="#1A1A1A" stroke-width="1.4" stroke-linecap="round" stroke-linejoin="round"/><path d="M2.869 18.46a.1.1 0 0 1-.12-.126l1.03-3.437a7.32 7.32 0 0 1-.95-5.115 7.375 7.375 0 0 1 2.694-4.468 7.53 7.53 0 0 1 5.003-1.606c1.81.081 3.528.81 4.835 2.05a7.33 7.33 0 0 1 .854 9.7 7.481 7.481 0 0 1-4.403 2.846 7.549 7.549 0 0 1-5.209-.728l-3.734.884Z" fill="white" stroke="#1A1A1A" stroke-width="1.4" stroke-linecap="round" stroke-linejoin="round"/><ellipse cx="6.545" cy="11.1" rx=".909" ry=".9" fill="#1A1A1A"/><ellipse cx="10.182" cy="11.1" rx=".909" ry=".9" fill="#1A1A1A"/><ellipse cx="13.818" cy="11.1" rx=".909" ry=".9" fill="#1A1A1A"/></svg>