<svg width="24" height="24" viewBox="0 0 24 24" fill="none" xmlns="http://www.w3.org/2000/svg"><path d="M2.7 2.8a.1.1 0 0 1 .1-.1h15.4a.1.1 0 0 1 .1.1v12.4a.1.1 0 0 1-.1.1H2.8a.1.1 0 0 1-.1-.1V2.8Z" stroke="#1A1A1A" stroke-width="1.4"/><path d="M5.4 5.3a.1.1 0 0 1 .1-.1h15.4a.1.1 0 0 1 .1.1v12.6a.1.1 0 0 1-.1.1h-5.356a.1.1 0 0 0-.08.04l-2.185 2.856a.1.1 0 0 1-.158 0l-2.185-2.857a.1.1 0 0 0-.08-.039H5.5a.1.1 0 0 1-.1-.1V5.3Z" fill="white" stroke="#1A1A1A" stroke-width="1.4"/><path d="M8.5 8.5h9m-9 3h9m-9 3h5" stroke="#1A1A1A" stroke-width="1.4" stroke-linecap="square"/></svg>