<svg width="28" height="28" viewBox="0 0 28 28" fill="none" xmlns="http://www.w3.org/2000/svg">
<path d="M4.6868 23.3541C4.60377 23.3738 4.53061 23.2962 4.5551 23.2145L5.87116 18.8227C4.6861 16.873 4.2574 14.5642 4.66477 12.3255C5.07213 10.0868 6.28784 8.07058 8.08585 6.65165C9.88387 5.23272 12.1418 4.50767 14.4399 4.61132C16.738 4.71497 18.9198 5.64026 20.5797 7.21514C22.2396 8.79003 23.2647 10.9074 23.4642 13.1734C23.6638 15.4395 23.0243 17.7001 21.6646 19.535C20.305 21.3698 18.3177 22.6541 16.0723 23.1489C13.8269 23.6437 11.4762 23.3154 9.45725 22.2251L4.6868 23.3541Z" stroke="#1A1A1A" stroke-width="1.33" stroke-linecap="round" stroke-linejoin="round"/>
<ellipse cx="10.2576" cy="14.0473" rx="1.00758" ry="0.9975" fill="#1A1A1A"/>
<ellipse cx="14.2869" cy="14.0473" rx="1.00758" ry="0.9975" fill="#1A1A1A"/>
<ellipse cx="18.3181" cy="14.0473" rx="1.00758" ry="0.9975" fill="#1A1A1A"/>
<circle cx="21" cy="7" r="7" fill="#3798FA"/>
<path d="M23.7031 9.00195C23.703 9.38846 23.3895 9.70215 23.0029 9.70215C22.8489 9.7021 22.7074 9.65079 22.5918 9.56641C22.5486 9.53912 22.5073 9.50739 22.4697 9.46973L19.7012 6.69336V9.70215H18.3008V5C18.3008 4.6134 18.6144 4.2998 19.001 4.2998C19.205 4.29986 19.3867 4.38893 19.5146 4.52832C19.5218 4.53493 19.5311 4.53991 19.5381 4.54688L22.3027 7.31934V4.2998H23.7031V9.00195Z" fill="white"/>
</svg>
