<svg width="24" height="24" viewBox="0 0 24 24" fill="none" xmlns="http://www.w3.org/2000/svg"><rect x="7.3" y="5.3" width="14" height="16" rx=".06" stroke="#1A1A1A" stroke-width="1.4"/><rect x="2.7" y="2.7" width="14" height="16" rx=".06" fill="white" stroke="#1A1A1A" stroke-width="1.4"/><path d="M11.5 7H14m-2.5 3.5H14M11.5 14H14M8.4 6 6.485 7.764a.06.06 0 0 1-.08.001L5.4 6.9m3 2.7-1.915 1.764a.06.06 0 0 1-.08.001L5.4 10.5m3 2.7-1.915 1.764a.06.06 0 0 1-.08.001L5.4 14.1" stroke="#1A1A1A" stroke-width="1.4" stroke-linecap="square"/></svg>