<svg width="40" height="40" viewBox="0 0 40 40" fill="none" xmlns="http://www.w3.org/2000/svg"><path d="m11.13 10.421 2.37-6.404 2.37 6.404a1.2 1.2 0 0 0 .709.71l6.404 2.369-6.404 2.37a1.2 1.2 0 0 0-.71.709L13.5 22.983l-2.37-6.404a1.2 1.2 0 0 0-.709-.71L4.017 13.5l6.404-2.37a1.2 1.2 0 0 0 .71-.709Z" stroke="#1A1A1A" stroke-width="1.4" stroke-linejoin="bevel"/><path d="M17.846 29.137 19 26.017l1.154 3.12a1.2 1.2 0 0 0 .71.709L23.982 31l-3.12 1.154a1.2 1.2 0 0 0-.709.71L19 35.982l-1.154-3.12a1.2 1.2 0 0 0-.71-.709L14.018 31l3.12-1.154a1.2 1.2 0 0 0 .709-.71Zm9.73-10.27L29 15.017l1.424 3.85a1.2 1.2 0 0 0 .71.709L34.982 21l-3.85 1.424a1.2 1.2 0 0 0-.709.71L29 26.982l-1.424-3.85a1.2 1.2 0 0 0-.71-.709L23.018 21l3.85-1.424a1.2 1.2 0 0 0 .709-.71Z" stroke="#1A1A1A" stroke-width="1.4"/></svg>