<svg width="24" height="24" viewBox="0 0 24 24" fill="none" xmlns="http://www.w3.org/2000/svg"><path d="M2.7 2.8a.1.1 0 0 1 .1-.1h15.4a.1.1 0 0 1 .1.1v18a.5.5 0 0 1-.5.5H5.7a3 3 0 0 1-3-3V2.8Z" stroke="#1A1A1A" stroke-width="1.4"/><path d="m5.5 7 1.43 1.43a.1.1 0 0 0 .14 0L9.5 6m-4 5 1.43 1.43a.1.1 0 0 0 .14 0L9.5 10M11 7h5m-5 4h5" stroke="#1A1A1A" stroke-width="1.4"/><path fill-rule="evenodd" clip-rule="evenodd" d="M8.6 16a.1.1 0 0 0-.1.1V18C8.466 20.511 7 21.3 6 21.3h12.55c1.52 0 2.75-1.075 2.75-2.4v-2.8a.1.1 0 0 0-.1-.1H8.6Z" fill="white" stroke="#1A1A1A" stroke-width="1.4" stroke-linecap="round"/></svg>