<svg width="45" height="40" viewBox="0 0 45 40" fill="none" xmlns="http://www.w3.org/2000/svg"><path d="M34.044 14v20.6m-28-20.6v20.6m-3-.2h34m-19 .6V21.2a.2.2 0 0 0-.2-.2h-7.6a.2.2 0 0 0-.2.2V35" stroke="#FF6905" stroke-width="1.4"/><path d="M16.728 5.7h6.743v5.229a3.371 3.371 0 1 1-6.743 0V5.7Z" fill="#FFE8D9" stroke="#FF6905" stroke-width="1.4"/><path d="M23.47 5.7h6.743v5.229a3.371 3.371 0 1 1-6.742 0V5.7Z" fill="#FFE8D9" stroke="#FF6905" stroke-width="1.4"/><path d="M30.213 5.7h6.742v5.229a3.371 3.371 0 1 1-6.742 0V5.7Zm-20.227 0h6.742v5.229a3.371 3.371 0 1 1-6.742 0V5.7Z" fill="#FFE8D9" stroke="#FF6905" stroke-width="1.4"/><path d="M3.244 10.929V5.7h6.742v5.229a3.371 3.371 0 1 1-6.742 0Z" fill="#FFE8D9" stroke="#FF6905" stroke-width="1.4"/><rect x="22.044" y="18" width="8" height="6" rx=".2" stroke="#FF6905" stroke-width="1.4"/></svg>