<svg width="24" height="24" viewBox="0 0 24 24" fill="none" xmlns="http://www.w3.org/2000/svg"><path d="M12 11.5 20.6 7v9.5l-8.6 5v-10Z" fill="#1A1A1A"/><path d="M20.398 16.557a.2.2 0 0 0 .102-.174v-9.26a.2.2 0 0 0-.11-.179l-8.3-4.198a.2.2 0 0 0-.18 0l-8.3 4.199a.2.2 0 0 0-.11.178v9.26a.2.2 0 0 0 .102.174l8.3 4.688a.2.2 0 0 0 .196 0l8.3-4.688Z" stroke="#1A1A1A" stroke-width="1.4" stroke-linecap="round"/><path d="m20 7.4-8 4.2-8-4.2" stroke="#1A1A1A" stroke-width="1.4" stroke-linecap="square"/></svg>