<svg width="24" height="24" viewBox="0 0 24 24" fill="none" xmlns="http://www.w3.org/2000/svg"><path fill-rule="evenodd" clip-rule="evenodd" d="M12 20.5a8.5 8.5 0 1 0 0-17 8.5 8.5 0 0 0 0 17Zm0 1.5c5.523 0 10-4.477 10-10S17.523 2 12 2 2 6.477 2 12s4.477 10 10 10Z" fill="#1A1A1A"/><path d="M15.84 7.2h-1.418v5.781h1.418V7.2Zm-8.4 4.589.731 1.044c1.186-.374 2.006-1.128 2.466-2.078.454.87 1.247 1.561 2.377 1.9l.72-1.045c-1.645-.475-2.399-1.646-2.404-2.775h2.028V7.76H7.817v1.076h2.072c-.011 1.197-.781 2.442-2.449 2.954Zm1.463 2.69h5.518V16.8h1.419v-3.397H8.903v1.076Z" fill="#1A1A1A"/></svg>