<svg width="45" height="40" viewBox="0 0 45 40" fill="none" xmlns="http://www.w3.org/2000/svg"><ellipse cx="20.307" cy="33" rx="12" ry="4" stroke="#FF6905" stroke-width="1.4"/><path d="M30.607 15.376c0 1.42-.454 3.025-1.213 4.703-.756 1.672-1.796 3.374-2.92 4.976-2.25 3.204-4.801 5.952-5.99 7.177a.241.241 0 0 1-.356 0c-1.188-1.225-3.74-3.973-5.989-7.177-1.124-1.602-2.164-3.304-2.92-4.976-.759-1.678-1.212-3.283-1.212-4.703 0-3.392 1.085-5.686 3.018-7.635A10.255 10.255 0 0 1 20.307 4.7c2.73 0 5.349 1.093 7.28 3.04 1.932 1.947 3.02 4.362 3.02 7.636Zm-10.3 3.324a3.7 3.7 0 1 0 0-7.4 3.7 3.7 0 0 0 0 7.4Z" fill="#FFE8D9" stroke="#FF6905" stroke-width="1.4"/></svg>