<svg width="24" height="24" viewBox="0 0 24 24" fill="none" xmlns="http://www.w3.org/2000/svg"><path d="M4.611 11.77C6.8 4.477 8.767 3 12 3c3.233 0 5.2 1.478 7.389 8.77C22.159 21 14.77 21 12 21c-2.77 0-10.16 0-7.389-9.23Z" stroke="#1A1A1A" stroke-width="1.4"/><path d="M14.174 15.304c0-.434-.87-.87-2.174-.87-1.304 0-2.174.436-2.174.87 0 1.305 1.304 2.174 2.174 2.174.87 0 2.174-.87 2.174-2.174Z" stroke="#1A1A1A" stroke-width="1.4" stroke-linejoin="round"/><path d="M12 17.478v3.478M8.7 4.65c-.778-.778-2.893-1.493-5.133 1.864C2.944 7.447 1.7 9.591 1.7 10.71c0 1.399 1.283 2.657 2.683 2.191M15.3 4.65c.778-.778 2.893-1.493 5.133 1.864.622.933 1.867 3.077 1.867 4.196 0 1.399-1.283 2.657-2.683 2.191" stroke="#1A1A1A" stroke-width="1.4"/><circle cx="9.826" cy="11.217" r=".87" fill="#1A1A1A"/><circle cx="14.174" cy="11.217" r=".87" fill="#1A1A1A"/></svg>