<svg width="45" height="40" viewBox="0 0 45 40" fill="none" xmlns="http://www.w3.org/2000/svg"><path d="M11.638 28.5V16.7h18.6v12.107a.718.718 0 0 0-.026.123c-.167 1.39-1.16 2.725-2.831 3.734-1.662 1.004-3.925 1.636-6.443 1.636s-4.78-.632-6.443-1.636c-1.67-1.01-2.664-2.343-2.831-3.734a.718.718 0 0 0-.026-.123V28.5ZM5.438 17v6.5" stroke="#FF6905" stroke-width="1.4"/><path d="m2.542 27.923 2.952-4.613 2.825 4.521c-1.831.924-3.977.953-5.777.092ZM3.335 15.5 20.938 5.309 38.541 15.5 20.938 25.691 3.335 15.5Z" fill="#FFF7F0" stroke="#FF6905" stroke-width="1.4"/><path d="m27.938 12.562 4.16 2.36a.5.5 0 0 1 .01.864l-9.17 5.476" stroke="#FF6905" stroke-width="1.4" stroke-linecap="round"/></svg>