<svg width="24" height="24" viewBox="0 0 24 24" fill="none" xmlns="http://www.w3.org/2000/svg"><path d="m14 14.5-1.577-4.732a.1.1 0 0 0-.095-.068H1.85a.1.1 0 0 0-.092.138l1.934 4.644a.1.1 0 0 1 .008.038v7.68a.1.1 0 0 0 .1.1h16.4a.1.1 0 0 0 .1-.1v-7.683a.1.1 0 0 1 .006-.033l1.647-4.65a.1.1 0 0 0-.095-.134h-5.285a.1.1 0 0 0-.095.07L15 14.5" stroke="#1A1A1A" stroke-width="1.4"/><path d="M12 1.7v2" stroke="#1A1A1A" stroke-width="1.4" stroke-linecap="square"/><path d="M14.5 14.5v8" stroke="#1A1A1A" stroke-width="1.4"/><path d="M20 14.7H4m.357-10.6 1.286 1.532m14-1.532-1.286 1.532" stroke="#1A1A1A" stroke-width="1.4" stroke-linecap="square"/></svg>