<svg width="24" height="24" viewBox="0 0 24 24" fill="none" xmlns="http://www.w3.org/2000/svg"><path d="M21 11v5.1a1.4 1.4 0 0 1-1.4 1.4h-1.29a1.4 1.4 0 0 1-1.4-1.4v-3.7a1.4 1.4 0 0 1 1.4-1.4H21Zm0 0c0-4-4.168-8.34-9.005-8.3C7.162 2.665 3 7 3 11m0 0v5.1a1.4 1.4 0 0 0 1.4 1.4h1.29a1.4 1.4 0 0 0 1.4-1.4v-3.7a1.4 1.4 0 0 0-1.4-1.4H3Z" stroke="#1A1A1A" stroke-width="1.4" stroke-linecap="round"/><path d="M21 14.3v3.64c0 .891-.339 1.746-.942 2.376a3.15 3.15 0 0 1-2.276.984H12" stroke="#1A1A1A" stroke-width="1.4"/></svg>