<svg width="24" height="24" viewBox="0 0 24 24" fill="none" xmlns="http://www.w3.org/2000/svg"><path d="M3.7 10.926a.1.1 0 0 1 .03-.071l8.2-8.086a.1.1 0 0 1 .14 0l8.2 8.086a.1.1 0 0 1 .03.07V21.2a.1.1 0 0 1-.1.1H3.8a.1.1 0 0 1-.1-.1V10.926Z" stroke="#1A1A1A" stroke-width="1.4"/><path d="M9.166 14.789a8.616 8.616 0 0 0 2.654 2.648c1.39.9 3.028 1.414 4.686 1.359a.099.099 0 0 0 .096-.1v-2.753a.1.1 0 0 0-.077-.097 91.7 91.7 0 0 0-2.378-.494.1.1 0 0 0-.081.02l-.91.725a.1.1 0 0 1-.112.009 7.07 7.07 0 0 1-2.562-2.556.1.1 0 0 1 .009-.112l.727-.908a.1.1 0 0 0 .02-.081 81.378 81.378 0 0 0-.483-2.373.099.099 0 0 0-.097-.076H7.903a.099.099 0 0 0-.099.095c-.055 1.661.458 3.301 1.362 4.694Z" stroke="#1A1A1A" stroke-width="1.4" stroke-linecap="round"/></svg>