<svg width="24" height="24" viewBox="0 0 24 24" fill="none" xmlns="http://www.w3.org/2000/svg">
<path d="M3.42856 4.39682C3.42856 4.33545 3.4783 4.28571 3.53967 4.28571L20.6508 4.28571C20.7121 4.28571 20.7619 4.33545 20.7619 4.39682L20.7619 17.5397C20.7619 17.601 20.7121 17.6508 20.6508 17.6508L14.6992 17.6508C14.6645 17.6508 14.6319 17.6669 14.6109 17.6944L12.1835 20.8687C12.139 20.9269 12.0514 20.9269 12.007 20.8687L9.57956 17.6944C9.55854 17.6669 9.52591 17.6508 9.4913 17.6508H3.53967C3.4783 17.6508 3.42856 17.601 3.42856 17.5397L3.42856 4.39682Z" stroke="#1A1A1A" stroke-width="1.4"/>
<path d="M6.85715 7.71429H17.1429" stroke="#1A1A1A" stroke-width="1.4" stroke-linecap="square"/>
<path d="M6.85715 11.1429H17.1429" stroke="#1A1A1A" stroke-width="1.4" stroke-linecap="square"/>
<path d="M6.85715 14.5714H12.8571" stroke="#1A1A1A" stroke-width="1.4" stroke-linecap="square"/>
</svg>
