<svg width="40" height="40" viewBox="0 0 40 40" fill="none" xmlns="http://www.w3.org/2000/svg"><path d="M34.483 10.502 20.798 3.276A1.309 1.309 0 0 0 20 3v34.483s14.453-6.424 15-25.05v-.895a1.313 1.313 0 0 0-.517-1.036Z" fill="url(#paint0_linear_17660_836)"/><path d="M19.19 3.276 5.507 10.502A1.314 1.314 0 0 0 5 11.536v.895c.54 18.628 15 25.052 15 25.052V3a1.3 1.3 0 0 0-.81.276Z" fill="#009D41"/><path d="m18.889 26.057-7.192-7.19 2.44-2.44 4.633 4.634 8.634-9.499 2.552 2.32-11.067 12.175Z" fill="white"/><defs><linearGradient id="paint0_linear_17660_836" x1="27.49" y1="3.114" x2="27.49" y2="36.245" gradientUnits="userSpaceOnUse"><stop stop-color="#59AF39"/><stop offset=".2" stop-color="#55AD39"/><stop offset=".42" stop-color="#48A538"/><stop offset=".65" stop-color="#329937"/><stop offset=".88" stop-color="#148836"/><stop offset="1" stop-color="#027E35"/></linearGradient></defs></svg>