<svg width="28" height="28" viewBox="0 0 28 28" fill="none" xmlns="http://www.w3.org/2000/svg">
<path fill-rule="evenodd" clip-rule="evenodd" d="M14 21.2133C20.0751 21.2133 25 17.2624 25 12.3887C25 7.51495 20.0751 3.56403 14 3.56403C7.92487 3.56403 3 7.51495 3 12.3887C3 15.4915 4.99616 18.2203 8.01444 19.7937L7.04408 23.23C6.93458 23.6178 7.36063 23.9366 7.70174 23.7221L11.9378 21.0585C12.6058 21.1601 13.2951 21.2133 14 21.2133Z" fill="#1A1A1A"/>
<path d="M8.01444 19.7937L8.6881 19.9839L8.84279 19.4361L8.33802 19.173L8.01444 19.7937ZM7.04408 23.23L6.37042 23.0398L6.37042 23.0398L7.04408 23.23ZM7.70174 23.7221L8.07436 24.3147L8.07436 24.3147L7.70174 23.7221ZM11.9378 21.0585L12.0431 20.3664L11.7856 20.3272L11.5652 20.4659L11.9378 21.0585ZM24.3 12.3887C24.3 16.7397 19.8404 20.5133 14 20.5133V21.9133C20.3099 21.9133 25.7 17.7851 25.7 12.3887H24.3ZM14 4.26403C19.8404 4.26403 24.3 8.03764 24.3 12.3887H25.7C25.7 6.99225 20.3099 2.86403 14 2.86403V4.26403ZM3.7 12.3887C3.7 8.03764 8.15962 4.26403 14 4.26403V2.86403C7.69012 2.86403 2.3 6.99225 2.3 12.3887H3.7ZM8.33802 19.173C5.49009 17.6884 3.7 15.1683 3.7 12.3887H2.3C2.3 15.8147 4.50222 18.7522 7.69087 20.4144L8.33802 19.173ZM7.71774 23.4203L8.6881 19.9839L7.34078 19.6035L6.37042 23.0398L7.71774 23.4203ZM7.32912 23.1295C7.53068 23.0028 7.78244 23.1911 7.71774 23.4203L6.37042 23.0398C6.08671 24.0445 7.19057 24.8704 8.07436 24.3147L7.32912 23.1295ZM11.5652 20.4659L7.32912 23.1295L8.07436 24.3147L12.3104 21.651L11.5652 20.4659ZM14 20.5133C13.3303 20.5133 12.6762 20.4628 12.0431 20.3664L11.8325 21.7505C12.5354 21.8574 13.2599 21.9133 14 21.9133V20.5133Z" fill="#1A1A1A"/>
</svg>
