<svg width="24" height="24" viewBox="0 0 24 24" fill="none" xmlns="http://www.w3.org/2000/svg"><path clip-rule="evenodd" d="M14.277 16.405a.101.101 0 0 1 .056-.075 5.3 5.3 0 1 0-4.665 0c.03.015.05.043.055.075l.764 4.81a.1.1 0 0 0 .098.085h2.83a.1.1 0 0 0 .098-.084l.764-4.81Z" stroke="#1A1A1A" stroke-width="1.4"/><path d="M9.7 17.5h4.5m-4.2 2h4" stroke="#1A1A1A" stroke-width="1.4"/><path d="M13.2 8.2a3.259 3.259 0 0 1 2 2" stroke="#1A1A1A" stroke-width="1.4" stroke-linecap="square"/><path d="M12 2v2.4M22 12h-2.4M2 12h2.4m15.2 7-1.697-1.697M4.4 4.7l1.697 1.697M19.6 4.7l-1.697 1.697M4.4 19l1.697-1.697" stroke="#1A1A1A" stroke-width="1.4"/></svg>