<svg width="24" height="24" viewBox="0 0 24 24" fill="none" xmlns="http://www.w3.org/2000/svg"><path fill-rule="evenodd" clip-rule="evenodd" d="M14.334 3c.466 0 .919.109 1.346.291a3.476 3.476 0 0 1 1.84 1.855c.18.43.271.888.271 1.359V9.09l4.414 2.813a1.71 1.71 0 0 1 .783 1.24c.037.315-.011.636-.141.926-.13.292-.337.54-.597.718a1.692 1.692 0 0 1-.962.297h-.352v3.214a3.495 3.495 0 0 1-2.11 3.213c-.428.182-.77.274-1.236.274l-11.133-.008a3.445 3.445 0 0 1-2.444-1.021A3.49 3.49 0 0 1 3 18.291V6.488a3.493 3.493 0 0 1 2.111-3.213C5.538 3.092 5.991 3 6.457 3h7.877Zm.055 1.073H6.401a2.371 2.371 0 0 0-2.36 2.382v11.883A2.371 2.371 0 0 0 6.4 20.72h2.326a3.432 3.432 0 0 1-.74-1.1 3.489 3.489 0 0 1-.272-1.358v-3.177H7.38c-.35 0-.683-.103-.966-.299a1.752 1.752 0 0 1-.734-1.65 1.705 1.705 0 0 1 .79-1.237l6.92-4.355c.288-.204.636-.316.988-.316.356 0 .692.106.98.315l1.392.885V6.472c0-1.316-1.057-2.4-2.362-2.4Zm-.01 4.18c-.153 0-.301.074-.415.14L7.01 12.77a.699.699 0 0 0-.153.126.694.694 0 0 0-.12.198c-.005.009-.007.019-.011.028l-.014.038a.723.723 0 0 0 .036.486.685.685 0 0 0 .633.412h1.39v4.204a2.451 2.451 0 0 0 2.44 2.458h6.24a2.451 2.451 0 0 0 2.44-2.458v-4.204h1.396c.277 0 .52-.157.632-.41a.72.72 0 0 0 .038-.486l-.01-.025a.675.675 0 0 0-.286-.365l-6.86-4.374a.81.81 0 0 0-.422-.144Zm2.079 8.456c.16 0 .29.132.29.294v1.4a.29.29 0 0 1-.496.208l-1.389-1.4c-.183-.185-.053-.502.206-.502h1.389Zm-3.546-3.592c.16 0 .29.131.29.293v1.4a.29.29 0 0 1-.496.208l-1.388-1.4a.294.294 0 0 1 .206-.501h1.388Zm3.546-.004c.16 0 .29.132.29.293v1.4a.29.29 0 0 1-.496.208l-1.389-1.4a.294.294 0 0 1 .206-.501h1.389ZM7.44 8.846a.53.53 0 0 1 .528.532.53.53 0 0 1-.528.533H6.189a.53.53 0 0 1-.527-.533.53.53 0 0 1 .527-.532h1.252ZM9.774 6.21a.53.53 0 0 1 .528.532.53.53 0 0 1-.528.532H6.206a.53.53 0 0 1-.527-.532.53.53 0 0 1 .527-.532h3.568Z" fill="#1A1A1A"/></svg>