<svg width="24" height="24" viewBox="0 0 24 24" fill="none" xmlns="http://www.w3.org/2000/svg"><path d="M12.051 17.632c-2.461-1.347-4.835-3.032-6.55-4.745V9.723c0-.366.103-.571.396-.79l3.048-2.286c3.062 1.157 7.18 3.809 9.538 6.181v4.306a.477.477 0 0 1-.498.498h-5.934Zm6.96 2.827c1.802 0 2.989-.879 2.989-2.343 0-1.465-1.114-3.296-3.077-5.258V9.562c0-.366-.102-.571-.395-.79l-6.125-4.63c-.264-.19-.527-.19-.791 0L8.696 6.34c-1.407-.498-2.667-.762-3.692-.762C3.143 5.578 2 6.472 2 7.922c0 1.45 1.084 3.295 3.033 5.243v4.511c0 .293.205.498.498.498h6.432c2.74 1.494 5.231 2.285 7.048 2.285Z" fill="#1A1A1A"/></svg>