<svg width="28" height="28" viewBox="0 0 28 28" fill="none" xmlns="http://www.w3.org/2000/svg"><path d="M17.5 16.8h3.43a.1.1 0 0 1 .094.066l2.428 6.8a.1.1 0 0 1-.094.134H4.642a.1.1 0 0 1-.094-.134l2.428-6.8a.1.1 0 0 1 .094-.066h3.43" stroke="#1A1A1A" stroke-width="1.4"/><path d="M20.3 10.556c0 4.168-4.852 8.987-6.04 10.104a.377.377 0 0 1-.52 0c-1.188-1.117-6.04-5.936-6.04-10.104C7.7 7.198 10.333 4.2 14 4.2c3.658 0 6.3 3 6.3 6.356Z" stroke="#1A1A1A" stroke-width="1.4" stroke-linecap="round" stroke-linejoin="round"/><circle cx="14" cy="10.3" r="2.8" stroke="#1A1A1A" stroke-width="1.4"/></svg>