<svg width="24" height="24" viewBox="0 0 24 24" fill="none" xmlns="http://www.w3.org/2000/svg"><path d="M15.5 14.8h3.43a.1.1 0 0 1 .094.066l2.428 6.8a.1.1 0 0 1-.094.134H2.642a.1.1 0 0 1-.094-.134l2.428-6.8a.1.1 0 0 1 .094-.066H8.5" stroke="#1A1A1A" stroke-width="1.4"/><path d="M18.3 8.556c0 4.168-4.852 8.987-6.04 10.104a.377.377 0 0 1-.52 0C10.552 17.543 5.7 12.724 5.7 8.556 5.7 5.198 8.333 2.2 12 2.2c3.658 0 6.3 3 6.3 6.356Z" stroke="#1A1A1A" stroke-width="1.4" stroke-linecap="round" stroke-linejoin="round"/><circle cx="12" cy="8.3" r="2.8" stroke="#1A1A1A" stroke-width="1.4"/></svg>