<svg width="24" height="24" viewBox="0 0 24 24" fill="none" xmlns="http://www.w3.org/2000/svg"><path d="m7.455 1.701-1.5 3.206a9.406 9.406 0 0 1 6.044-2.176c5.136 0 9.299 4.058 9.299 9.063 0 1.89-.593 3.643-1.608 5.096m-3.781 5.409 1.06-2.844a9.432 9.432 0 0 1-4.97 1.402c-5.136 0-9.3-4.058-9.3-9.063a8.851 8.851 0 0 1 .91-3.914" stroke="#1A1A1A" stroke-width="1.4" stroke-linecap="square" stroke-linejoin="round"/><path d="M7.5 16h1.487v-3.384c.394-.451.758-.677 1.092-.677.556 0 .798.333.798 1.279V16h1.477v-3.384c.404-.451.758-.677 1.092-.677.536 0 .799.333.799 1.279V16h1.487v-2.997c0-1.504-.557-2.396-1.77-2.396-.738 0-1.274.451-1.8 1.042-.263-.677-.759-1.042-1.578-1.042-.718 0-1.254.42-1.729.924h-.03l-.122-.795H7.5V16Zm6.28-5.909h2.72v-.945h-1.052c.415-.344.94-.816.94-1.418 0-.645-.475-1.128-1.294-1.128-.586 0-1.01.269-1.425.72l.566.612c.212-.258.435-.408.667-.408.293 0 .435.15.435.451 0 .494-.677.935-1.557 1.515v.601Z" fill="#1A1A1A"/></svg>