<svg width="28" height="28" viewBox="0 0 28 28" fill="none" xmlns="http://www.w3.org/2000/svg"><path d="m9.455 3.701-1.5 3.205a9.405 9.405 0 0 1 6.044-2.175c5.136 0 9.299 4.058 9.299 9.063a8.86 8.86 0 0 1-1.608 5.095m-3.781 5.41 1.06-2.844a9.432 9.432 0 0 1-4.97 1.402c-5.136 0-9.3-4.058-9.3-9.063a8.851 8.851 0 0 1 .91-3.914" stroke="#1A1A1A" stroke-width="1.4" stroke-linecap="square" stroke-linejoin="round"/><path d="M9.5 18h1.486v-3.384c.395-.451.759-.677 1.093-.677.556 0 .798.333.798 1.279V18h1.477v-3.384c.404-.451.758-.677 1.092-.677.536 0 .799.333.799 1.279V18h1.486v-2.997c0-1.504-.556-2.396-1.77-2.396-.737 0-1.273.451-1.8 1.042-.262-.677-.758-1.042-1.577-1.042-.718 0-1.254.419-1.729.924h-.03l-.122-.795H9.5V18Zm6.28-5.909h2.72v-.945h-1.052c.415-.344.94-.816.94-1.418 0-.645-.475-1.128-1.294-1.128-.586 0-1.01.269-1.426.72l.567.612c.212-.258.435-.408.667-.408.293 0 .435.15.435.451 0 .494-.677.935-1.557 1.515v.601Z" fill="#1A1A1A"/></svg>