<svg width="24" height="24" viewBox="0 0 24 24" fill="none" xmlns="http://www.w3.org/2000/svg"><path d="M20.7 11v9.9a.1.1 0 0 1-.1.1H2.8a.1.1 0 0 1-.1-.1V3.1a.1.1 0 0 1 .1-.1h9.7" stroke="#1A1A1A" stroke-width="1.4" stroke-linecap="square"/><path d="M8.3 12.491V15.6a.1.1 0 0 0 .1.1h3.059a.1.1 0 0 0 .07-.03l9.7-9.65a.1.1 0 0 0 0-.14l-3.108-3.11a.1.1 0 0 0-.142 0l-9.65 9.65a.1.1 0 0 0-.029.071Z" stroke="#1A1A1A" stroke-width="1.4" stroke-linecap="round"/><path d="m15.613 5.138 3.25 3.25" stroke="#1A1A1A" stroke-width="1.4" stroke-linecap="round" stroke-linejoin="round"/></svg>