<svg width="24" height="24" viewBox="0 0 24 24" fill="none" xmlns="http://www.w3.org/2000/svg"><path d="M13.3 7.3c1.73.616 3 2.28 3 4.706 0 2.424-1.268 4.076-2.994 4.694" stroke="#1A1A1A" stroke-width="1.4"/><path clip-rule="evenodd" d="M6.5 6.5H2.8a.1.1 0 0 0-.1.1v10.8a.1.1 0 0 0 .1.1h3.7l6.163 4.532a.4.4 0 0 0 .637-.323V2.291a.4.4 0 0 0-.637-.323L6.5 6.5Z" stroke="#1A1A1A" stroke-width="1.4"/><path d="M6 9v6" stroke="#1A1A1A" stroke-width="1.4"/><path d="M19 12h2.3m-3.146-5.425 1.992-1.15m-1.992 12 1.992 1.15M19 12h2.3m-3.146-5.425 1.992-1.15m-1.992 12 1.992 1.15" stroke="#1A1A1A" stroke-width="1.4" stroke-linecap="square"/></svg>