<svg width="24" height="24" viewBox="0 0 24 24" fill="none" xmlns="http://www.w3.org/2000/svg"><path d="M2 5C2 4.44772 2.44772 4 3 4H21C21.5523 4 22 4.44772 22 5V8H2V5Z" fill="#1A1A1A" stroke="#1A1A1A" stroke-width="1.4"/><path d="M6 2.7C6 2.3134 6.3134 2 6.7 2V2C7.0866 2 7.4 2.3134 7.4 2.7V6H6V2.7Z" fill="#1A1A1A" /><rect x="6" y="12.5" width="1.4" height="1.4" fill="#1A1A1A"/><rect x="6" y="16.5" width="1.4" height="1.4" fill="#1A1A1A"/><rect x="11.5" y="12.5" width="1.4" height="1.4" fill="#1A1A1A"/><rect x="11.5" y="16.5" width="1.4" height="1.4" fill="#1A1A1A"/><rect x="16.5" y="12.5" width="1.4" height="1.4" fill="#1A1A1A"/><rect x="16.5" y="16.5" width="1.4" height="1.4" fill="#1A1A1A"/><path d="M16 2.7C16 2.3134 16.3134 2 16.7 2V2C17.0866 2 17.4 2.3134 17.4 2.7V6H16V2.7Z" fill="#1A1A1A"/><path d="M2 8H22V21C22 21.5523 21.5523 22 21 22H3C2.44772 22 2 21.5523 2 21V8Z" stroke="#1A1A1A" stroke-width="1.4"/></svg>
