<svg width="48" height="48" viewBox="0 0 48 48" fill="none" xmlns="http://www.w3.org/2000/svg"><circle cx="24" cy="24" r="24" fill="#FFF7F0"/><path fill-rule="evenodd" clip-rule="evenodd" d="M15.446 15.905a.5.5 0 0 0-.446.497V34.5a.5.5 0 0 0 .5.5H22v-3.5a.5.5 0 0 1 .5-.5h3a.5.5 0 0 1 .5.5V35h6.5a.5.5 0 0 0 .5-.5V14.557a.5.5 0 0 0-.554-.497l-17 1.845ZM18.5 20a.5.5 0 0 0-.5.5v.5a.5.5 0 0 0 .5.5h11a.5.5 0 0 0 .5-.5v-.5a.5.5 0 0 0-.5-.5h-11Zm-.5 5a.5.5 0 0 1 .5-.5h11a.5.5 0 0 1 .5.5v.5a.5.5 0 0 1-.5.5h-11a.5.5 0 0 1-.5-.5V25Z" fill="#FF6905"/></svg>