<svg width="28" height="28" viewBox="0 0 28 28" fill="none" xmlns="http://www.w3.org/2000/svg">
<path fill-rule="evenodd" clip-rule="evenodd" d="M3.44536 3.36983C3.19189 3.39769 3 3.61183 3 3.86683V26.5002C3 26.7763 3.22386 27.0002 3.5 27.0002H11.5V21.5002C11.5 21.224 11.7239 21.0002 12 21.0002H16C16.2761 21.0002 16.5 21.224 16.5 21.5002V27.0002H24.5C24.7761 27.0002 25 26.7763 25 26.5002V1.55816C25 1.26039 24.7414 1.02862 24.4454 1.06116L3.44536 3.36983ZM7.16654 8.27637C6.8904 8.27637 6.66654 8.50023 6.66654 8.77637V9.60971C6.66654 9.88585 6.8904 10.1097 7.16654 10.1097H20.8332C21.1093 10.1097 21.3332 9.88585 21.3332 9.60971V8.77637C21.3332 8.50023 21.1093 8.27637 20.8332 8.27637H7.16654ZM6.66654 14.2764C6.66654 14.0002 6.8904 13.7764 7.16654 13.7764H20.8332C21.1093 13.7764 21.3332 14.0002 21.3332 14.2764V15.1097C21.3332 15.3858 21.1093 15.6097 20.8332 15.6097H7.16654C6.8904 15.6097 6.66654 15.3858 6.66654 15.1097V14.2764Z" fill="#1A1A1A"/>
</svg>
