<svg width="32" height="32" viewBox="0 0 32 32" fill="none" xmlns="http://www.w3.org/2000/svg">
<g clip-path="url(#clip0_2407_3540)">
<path d="M14.7852 7.90808C14.7852 7.42509 15.1304 7.01113 15.6055 6.92435L23.6055 5.46328C24.2196 5.35113 24.7852 5.82279 24.7852 6.44701V28.2157H14.7852V7.90808Z" fill="#FFC8A3"/>
<path d="M18.7852 18.2692H21.7852V21.2692H18.7852V18.2692Z" fill="white"/>
<path d="M18.7852 13.2692H21.7852V16.2692H18.7852V13.2692Z" fill="white"/>
<path d="M7.09766 6.10188C7.09766 5.61889 7.44286 5.20493 7.91799 5.11815L15.918 3.65708C16.5321 3.54493 17.0977 4.01658 17.0977 4.64081V28.2156H7.09766V6.10188Z" fill="#FF6905"/>
<path d="M10.5977 18.2692H13.5977V21.2692H10.5977V18.2692Z" fill="white"/>
<path d="M10.5977 13.2692H13.5977V16.2692H10.5977V13.2692Z" fill="white"/>
<path d="M10.5977 8.26921H13.5977V11.2692H10.5977V8.26921Z" fill="white"/>
</g>
<defs>
<clipPath id="clip0_2407_3540">
<rect width="32" height="32" fill="white"/>
</clipPath>
</defs>
</svg>
