<svg width="32" height="32" viewBox="0 0 32 32" fill="none" xmlns="http://www.w3.org/2000/svg">
<g clip-path="url(#clip0_2407_3542)">
<path d="M7.67969 11.9152C7.67969 11.6005 7.82788 11.3041 8.07969 11.1152L15.5756 5.4933C15.9312 5.22664 16.42 5.22664 16.7756 5.4933L24.2715 11.1152C24.5233 11.3041 24.6715 11.6005 24.6715 11.9152V26.7067H7.67969V11.9152Z" fill="#FF6905"/>
<path d="M14.1719 14.1191H18.1719V18.1191H14.1719V14.1191Z" fill="white"/>
<path d="M21.7773 26.7067L23.7055 19.6368C23.9735 18.6543 25.3671 18.6543 25.635 19.6368L27.5632 26.7067H21.7773Z" fill="#1F9B38"/>
<path d="M11.4258 23.2067C11.4258 25.1397 9.85878 26.7067 7.92578 26.7067C5.99278 26.7067 4.42578 25.1397 4.42578 23.2067C4.42578 21.2737 5.99278 19.7067 7.92578 19.7067C9.85878 19.7067 11.4258 21.2737 11.4258 23.2067Z" fill="#1F9B38"/>
</g>
<defs>
<clipPath id="clip0_2407_3542">
<rect width="32" height="32" fill="white"/>
</clipPath>
</defs>
</svg>
