<svg width="28" height="28" viewBox="0 0 28 28" fill="none" xmlns="http://www.w3.org/2000/svg">
<path fill-rule="evenodd" clip-rule="evenodd" d="M2.22755 9.55391C2.08563 9.64613 2 9.8039 2 9.97316V25.5C2 25.7762 2.22386 26 2.5 26H25.5C25.7761 26 26 25.7762 26 25.5V9.97316C26 9.8039 25.9144 9.64613 25.7724 9.55391L14.2724 2.08075C14.1068 1.97308 13.8932 1.97308 13.7276 2.08075L2.22755 9.55391ZM8.5 12.7037C8.22386 12.7037 8 12.9276 8 13.2037V15.8037C8 16.0799 8.22386 16.3037 8.5 16.3037H10.5C10.7761 16.3037 11 16.0799 11 15.8037V13.2037C11 12.9276 10.7761 12.7037 10.5 12.7037H8.5Z" fill="#1A1A1A"/>
</svg>
