<svg width="24" height="24" viewBox="0 0 24 24" fill="none" xmlns="http://www.w3.org/2000/svg"><path d="M5 15h3m8 0h3m-16.3.7a3.4 3.4 0 0 1 3.4-3.4h11.8a3.4 3.4 0 0 1 3.4 3.4v2.5a.1.1 0 0 1-.1.1H2.8a.1.1 0 0 1-.1-.1v-2.5Z" stroke="#1A1A1A" stroke-width="1.4"/><path d="M19.5 12.3h-15l1.97-5.534a.1.1 0 0 1 .095-.066H13M4.1 18.3h2.6v.7a1.3 1.3 0 1 1-2.6 0v-.7Zm13.2 0h2.6v.7a1.3 1.3 0 1 1-2.6 0v-.7Z" stroke="#1A1A1A" stroke-width="1.4"/><path d="M2.7 12.3H4m16 0h1.3m-6-2.3V2.7h3.5c1.108 0 2.5.8 2.5 2.3 0 1.5-1.442 2.5-2.5 2.5h-3.5" stroke="#1A1A1A" stroke-width="1.4" stroke-linecap="square"/></svg>