<svg width="24" height="24" viewBox="0 0 24 24" fill="none" xmlns="http://www.w3.org/2000/svg"><path d="M5.793 12.797a17.62 17.62 0 0 0 5.428 5.416c2.873 1.859 6.26 2.912 9.684 2.775a.1.1 0 0 0 .095-.1v-5.814a.098.098 0 0 0-.075-.097c-1.408-.334-4.58-.957-4.993-1.037a.098.098 0 0 0-.08.02l-1.955 1.557a.1.1 0 0 1-.112.009 14.458 14.458 0 0 1-5.335-5.324.1.1 0 0 1 .009-.112l1.56-1.95a.099.099 0 0 0 .02-.08c-.078-.416-.69-3.62-1.015-4.982a.098.098 0 0 0-.097-.075H3.112a.1.1 0 0 0-.1.096c-.138 3.43.914 6.822 2.781 9.698Z" stroke="#1A1A1A" stroke-width="1.4" stroke-linecap="round"/></svg>