<svg width="67" height="20" viewBox="0 0 67 20" fill="none" xmlns="http://www.w3.org/2000/svg">
<rect width="67" height="20" rx="4" fill="#1A1A1A" fill-opacity="0.6"/>
<path d="M7.56641 7.2207C7.56641 9.36035 8.98145 11.5684 10.7109 12.416L10.0547 13.2773C8.71484 12.5801 7.59375 11.1377 7.05371 9.44922C6.51367 11.2402 5.36523 12.7783 3.99805 13.5098L3.31445 12.6484C5.0918 11.7734 6.5 9.44238 6.51367 7.2207V5.00586H7.56641V7.2207ZM11.832 16.1074V3.95312H12.8984V8.88867H14.9355V9.81836H12.8984V16.1074H11.832ZM19.9668 6.56445C19.9736 8.20508 21.2656 9.68164 23.084 10.2559L22.5371 11.1172C21.1221 10.6318 20.001 9.63379 19.4473 8.35547C18.9209 9.73633 17.7793 10.8301 16.3301 11.3633L15.7695 10.502C17.5947 9.86621 18.8799 8.28711 18.8867 6.56445V5.85352H16.043V4.97852H22.7695V5.85352H19.9668V6.56445ZM17.7793 15.8477V12.0332H18.8457V14.9453H26.0098V15.8477H17.7793ZM24.5605 12.8809V3.9668H25.627V12.8809H24.5605ZM33.9258 5.4707C33.9189 6.96777 35.9561 8.18457 38.1094 8.47852L37.6855 9.32617C35.7236 9.03906 33.8848 8.06152 33.2285 6.63965C32.5654 8.06152 30.7402 9.03906 28.7715 9.32617L28.375 8.47852C30.5146 8.18457 32.5381 6.96777 32.5312 5.4707V5.44336H28.7031V4.56836H37.7812V5.44336H33.9258V5.4707ZM27.6777 11.1035V10.2148H38.8066V11.1035H33.8574V13.5918H32.791V11.1035H27.6777ZM29.0996 15.8477V12.375H30.1797V14.9453H37.5625V15.8477H29.0996ZM49.8125 3.95312V16.1348H48.7324V3.95312H49.8125ZM40.502 13.1953V4.99219H41.5684V8.20508H45.1914V4.99219H46.2441V13.1953H40.502ZM41.5684 12.293H45.1914V9.06641H41.5684V12.293ZM62.9648 9.64062V10.5293H57.9473V11.8281C60.2373 11.9307 61.5977 12.6758 61.6113 13.9609C61.5977 15.3213 60.0322 16.0801 57.4277 16.0801C54.7891 16.0801 53.2236 15.3213 53.2305 13.9609C53.2236 12.6758 54.5771 11.9307 56.8945 11.8281V10.5293H51.8906V9.64062H62.9648ZM52.5195 8.05469C54.625 7.83594 56.6553 6.7627 56.7305 5.40234H52.9023V4.52734H61.9805V5.40234H58.125C58.2002 6.7627 60.21 7.83594 62.3496 8.05469L61.9531 8.90234C59.9639 8.66309 58.0977 7.76758 57.4277 6.4209C56.7578 7.76758 54.9053 8.66309 52.9023 8.90234L52.5195 8.05469ZM54.3242 13.9609C54.3105 14.7676 55.4795 15.2529 57.4277 15.2461C59.3555 15.2529 60.5244 14.7676 60.5312 13.9609C60.5244 13.1338 59.3555 12.6621 57.4277 12.6484C55.4795 12.6621 54.3105 13.1338 54.3242 13.9609Z" fill="white"/>
</svg>
