<svg width="28" height="28" viewBox="0 0 28 28" fill="none" xmlns="http://www.w3.org/2000/svg"><path d="m9.455 3.701-1.5 3.205a9.405 9.405 0 0 1 6.044-2.175c5.136 0 9.299 4.058 9.299 9.063a8.86 8.86 0 0 1-1.608 5.095m-3.781 5.41 1.06-2.844a9.432 9.432 0 0 1-4.97 1.402c-5.136 0-9.3-4.058-9.3-9.063a8.851 8.851 0 0 1 .91-3.914" stroke="#1A1A1A" stroke-width="1.4" stroke-linecap="square" stroke-linejoin="round"/><path d="M15.078 10.267h-5.04v.964h.77v2.42L9.8 13.66l.135.973c1.501 0 3.564-.033 5.34-.302l-.052-.889c-.296.034-.607.062-.924.08v-2.291h.779v-.964Zm-3.792 6.436c0 1.002 1.226 1.602 3.252 1.597 2.03.005 3.257-.595 3.262-1.597-.005-1.03-1.231-1.611-3.262-1.616-2.026.005-3.252.586-3.252 1.616Zm.8-3.076V11.23h.945v2.367c-.317.01-.634.024-.945.029Zm.52 3.076c0-.468.67-.695 1.932-.69 1.262-.005 1.937.222 1.942.69-.005.454-.68.68-1.942.68-1.263 0-1.933-.226-1.933-.68Zm2.68-3.034h1.163v1.285h1.32V9.7h-1.32v1.399h-1.163v.945h1.163v.661h-1.163v.964Z" fill="#1A1A1A"/></svg>