<svg width="28" height="28" viewBox="0 0 28 28" fill="none" xmlns="http://www.w3.org/2000/svg"><path clip-rule="evenodd" d="M14 4.7a9.3 9.3 0 1 0 0 18.6 9.3 9.3 0 0 0 0-18.6Z" stroke="#1A1A1A" stroke-width="1.4"/><path fill-rule="evenodd" clip-rule="evenodd" d="M12.25 11.75c0-.266.11-.73.397-1.113.262-.35.673-.637 1.353-.637.702 0 1.109.275 1.36.6.274.354.39.81.39 1.15 0 .35-.233.903-.835 1.204-.499.25-.927.575-1.227 1.019-.305.45-.438.967-.438 1.527v.9h1.5v-.9c0-.313.071-.525.181-.688.115-.17.312-.345.654-.516 1.127-.564 1.665-1.646 1.665-2.546a3.47 3.47 0 0 0-.704-2.068C16.016 8.996 15.173 8.5 14 8.5c-1.195 0-2.034.546-2.553 1.238-.495.66-.697 1.445-.697 2.012v.75h1.5v-.75Z" fill="#1A1A1A"/><path d="M14 19.563a.937.937 0 1 0 0-1.875.937.937 0 0 0 0 1.875Z" fill="#1A1A1A"/></svg>