<svg width="24" height="24" viewBox="0 0 24 24" fill="none" xmlns="http://www.w3.org/2000/svg"><rect x="2.7" y="3.7" width="18.6" height="16.6" rx=".4" stroke="#1A1A1A" stroke-width="1.4"/><circle cx="8" cy="11" stroke="#1A1A1A" stroke-width="1.4" r="2.17"/><path d="m5.7 8.7.948.948M5.7 13.299l.948-.949m2.704-2.704.949-.949m-.949 3.655.949.949" stroke="#1A1A1A" stroke-width="1.4" stroke-linecap="square"/><circle cx="16" cy="11" stroke="#1A1A1A" stroke-width="1.4" r="2.17"/><path d="m13.698 8.697.948.948m-.948 3.655.948-.949m2.707-2.707.948-.948m-.948 3.656.948.948" stroke="#1A1A1A" stroke-width="1.4" stroke-linecap="square"/><path fill-rule="evenodd" clip-rule="evenodd" d="M7.5 18a.8.8 0 1 0 0-1.6.8.8 0 0 0 0 1.6Zm3.8-.8a.8.8 0 1 1-1.6 0 .8.8 0 0 1 1.6 0Zm2.2.8a.8.8 0 1 0 0-1.6.8.8 0 0 0 0 1.6Zm3 0a.8.8 0 1 0 0-1.6.8.8 0 0 0 0 1.6Z" fill="#1A1A1A"/></svg>