<svg width="24" height="24" viewBox="0 0 24 24" fill="none" xmlns="http://www.w3.org/2000/svg"><path d="M9.082 19a3.001 3.001 0 0 0 5.836 0" stroke="#1A1A1A" stroke-width="1.4"/><path d="M4.827 10.842c0-3.944 3.209-7.142 7.167-7.142 3.959 0 7.167 3.198 7.167 7.142v4.686l.777 3.124a.2.2 0 0 1-.194.248H4.254a.2.2 0 0 1-.195-.246c.17-.707.658-2.723.768-3.119v-4.693ZM12 2v1.8" stroke="#1A1A1A" stroke-width="1.4" stroke-linejoin="round"/><path d="M17.194 2.25a9.843 9.843 0 0 1 3.562 3.947m-17.512 0A9.844 9.844 0 0 1 6.806 2.25" stroke="#1A1A1A" stroke-width="1.4" stroke-linecap="square" stroke-linejoin="round"/></svg>