<svg width="24" height="24" viewBox="0 0 24 24" fill="none" xmlns="http://www.w3.org/2000/svg"><path vector-effect="non-scaling-stroke" d="M9.32532 18.4167C9.61436 19.6259 10.7022 20.525 12.0001 20.525C13.2979 20.525 14.3858 19.6259 14.6748 18.4167" stroke="#1A1A1A" stroke-width="1.28333"/><path vector-effect="non-scaling-stroke" d="M5.42436 10.9387C5.42436 7.32285 8.3659 4.39166 11.9945 4.39166C15.6231 4.39166 18.5646 7.32285 18.5646 10.9387V15.234L19.2767 18.0974C19.3055 18.2131 19.218 18.325 19.0988 18.325H4.89928C4.78069 18.325 4.69306 18.2152 4.72086 18.0999C4.8772 17.4516 5.324 15.6037 5.42436 15.2406V10.9387Z" stroke="#1A1A1A" stroke-width="1.28333" stroke-linejoin="round"/><path vector-effect="non-scaling-stroke" d="M12 2.83334V4.48334" stroke="#1A1A1A" stroke-width="1.28333" stroke-linejoin="round"/><path vector-effect="non-scaling-stroke" d="M16.7609 3.0625C18.1607 3.94612 19.2904 5.19777 20.0265 6.68047" stroke="#1A1A1A" stroke-width="1.28333" stroke-linecap="square" stroke-linejoin="round"/><path vector-effect="non-scaling-stroke" d="M3.97351 6.68047C4.70959 5.19777 5.83934 3.94612 7.23914 3.0625" stroke="#1A1A1A" stroke-width="1.28333" stroke-linecap="square" stroke-linejoin="round"/></svg>
