<svg width="24" height="24" viewBox="0 0 24 24" fill="none" xmlns="http://www.w3.org/2000/svg"><path d="M4.5 18V9C4.5 7 6 5.5 8 5.5S11.5 7 11.5 9v5c0 2 1.5 3.5 3.25 3.5S18 16 18 14v-1.5" stroke="#1A1A1A" stroke-width="1.4" stroke-linejoin="round"/><path d="M21.3 6.107c0 2.023-2.79 4.463-3.24 4.842a.091.091 0 0 1-.12 0c-.45-.38-3.24-2.82-3.24-4.842 0-1.072.348-1.811.967-2.434a3.29 3.29 0 0 1 4.667 0c.618.623.966 1.399.966 2.434Z" stroke="#1A1A1A" stroke-width="1.4" stroke-linecap="round"/><circle cx="18" cy="6" r=".6" stroke="#1A1A1A" stroke-width="1.4"/><circle cx="4.5" cy="19.5" r="1.8" stroke="#1A1A1A" stroke-width="1.4"/></svg>