<svg width="28" height="28" viewBox="0 0 28 28" fill="none" xmlns="http://www.w3.org/2000/svg">
<path d="M7 18.6666H3.5M7 18.6666C7 20.5997 8.56701 22.1666 10.5 22.1666C12.433 22.1666 14 20.5997 14 18.6666M7 18.6666C7 16.7336 8.56701 15.1666 10.5 15.1666C12.433 15.1666 14 16.7336 14 18.6666M14 18.6666H24.5M14 9.33331H3.5M14 9.33331C14 11.2663 15.5669 12.8333 17.5 12.8333C19.433 12.8333 21 11.2663 21 9.33331M14 9.33331C14 7.40032 15.5669 5.83331 17.5 5.83331C19.433 5.83331 21 7.40032 21 9.33331M21 9.33331H24.5" stroke="#1A1A1A" stroke-width="1.4" stroke-linecap="round"/>
</svg>
