<svg width="28" height="28" viewBox="0 0 28 28" fill="none" xmlns="http://www.w3.org/2000/svg"><path d="M14 17.3a3.3 3.3 0 1 0 0-6.6 3.3 3.3 0 0 0 0 6.6Z" stroke="#1A1A1A" stroke-width="1.4" stroke-miterlimit="5"/><path d="m22.568 16.365-1.36-1.163a7.514 7.514 0 0 0 0-2.4l1.36-1.163a.678.678 0 0 0 .193-.73 9.184 9.184 0 0 0-1.71-2.961.68.68 0 0 0-.728-.197l-1.687.6a7.31 7.31 0 0 0-2.07-1.196l-.325-1.765a.678.678 0 0 0-.535-.534 9.379 9.379 0 0 0-3.412 0 .678.678 0 0 0-.535.534l-.328 1.773a7.301 7.301 0 0 0-2.054 1.192l-1.7-.604a.677.677 0 0 0-.728.197 9.188 9.188 0 0 0-1.71 2.96.667.667 0 0 0 .193.731l1.376 1.176a7.332 7.332 0 0 0 0 2.37l-1.376 1.176a.678.678 0 0 0-.193.73 9.187 9.187 0 0 0 1.71 2.961.68.68 0 0 0 .728.197l1.7-.604c.618.509 1.31.912 2.054 1.192l.328 1.773a.68.68 0 0 0 .535.534 9.385 9.385 0 0 0 3.412 0 .678.678 0 0 0 .535-.534l.326-1.765a7.265 7.265 0 0 0 2.069-1.195l1.687.6c.254.09.554.008.728-.198a9.21 9.21 0 0 0 1.71-2.96.662.662 0 0 0-.193-.727Z" stroke="#1A1A1A" stroke-width="1.4" stroke-miterlimit="5"/></svg>