<svg width="24" height="24" viewBox="0 0 24 24" fill="none" xmlns="http://www.w3.org/2000/svg"><path d="M12 15.3a3.3 3.3 0 1 0 0-6.6 3.3 3.3 0 0 0 0 6.6Z" stroke="#1A1A1A" stroke-width="1.4" stroke-miterlimit="5"/><path d="m20.568 14.365-1.36-1.163a7.514 7.514 0 0 0 0-2.4l1.36-1.163a.678.678 0 0 0 .193-.73 9.185 9.185 0 0 0-1.71-2.961.68.68 0 0 0-.728-.197l-1.687.6a7.311 7.311 0 0 0-2.07-1.196l-.325-1.765a.678.678 0 0 0-.535-.534 9.379 9.379 0 0 0-3.412 0 .678.678 0 0 0-.535.534l-.328 1.773a7.3 7.3 0 0 0-2.054 1.192l-1.7-.604a.677.677 0 0 0-.728.197 9.188 9.188 0 0 0-1.71 2.96.667.667 0 0 0 .193.731l1.376 1.176a7.332 7.332 0 0 0 0 2.37l-1.376 1.176a.678.678 0 0 0-.193.73 9.187 9.187 0 0 0 1.71 2.961.68.68 0 0 0 .728.197l1.7-.604c.618.509 1.31.912 2.054 1.192l.328 1.773a.68.68 0 0 0 .535.534 9.385 9.385 0 0 0 3.412 0 .678.678 0 0 0 .535-.534l.326-1.765a7.266 7.266 0 0 0 2.069-1.195l1.687.6c.254.09.554.008.728-.198a9.211 9.211 0 0 0 1.71-2.96.662.662 0 0 0-.193-.727Z" stroke="#1A1A1A" stroke-width="1.4" stroke-miterlimit="5"/></svg>