<svg width="8" height="9" viewBox="0 0 8 9" fill="none" xmlns="http://www.w3.org/2000/svg">
<path d="M7.86477 1.95795L4.21481 0.072C4.15133 0.02385 4.0759 0 4 0C3.9241 0 3.84867 0.02385 3.78565 0.072L0.135235 1.95795C0.050138 2.02275 0 2.12265 0 2.2284V2.46195C0.143974 7.3233 4 9 4 9C4 9 7.85603 7.3233 8 2.46195V2.2284C8 2.12265 7.95032 2.02275 7.86477 1.95795ZM4 5.70105L3.70515 6.0183L1.78703 4.1418L2.43744 3.5055L3.67341 4.71465L4 4.3632L5.97746 2.2356L6.65823 2.84085L4.00046 5.70105H4Z" fill="#1A1A1A"/>
</svg>
