<svg width="24" height="24" viewBox="0 0 24 24" fill="none" xmlns="http://www.w3.org/2000/svg"><path d="M19 20v2M5 20v2M2.8 7.5h18.4m-15.5-1a.8.8 0 0 1 .8-.8h2a.8.8 0 0 1 .8.8v1H5.7v-1Zm2.98-.8V3.8a.1.1 0 0 0-.1-.1H6.43a.1.1 0 0 0-.1.1v1.9m3.37.8a.8.8 0 0 1 .8-.8h2a.8.8 0 0 1 .8.8v1H9.7v-1Zm2.98-.8V3.8a.1.1 0 0 0-.1-.1h-2.15a.1.1 0 0 0-.1.1v1.9M11.7 13a.8.8 0 0 1 .8-.8h2a.8.8 0 0 1 .8.8v1h-3.6v-1Zm2.98-.8v-1.9a.1.1 0 0 0-.1-.1h-2.15a.1.1 0 0 0-.1.1v1.9m3.37.8a.8.8 0 0 1 .8-.8h2a.8.8 0 0 1 .8.8v1h-3.6v-1Zm2.98-.8v-1.9a.1.1 0 0 0-.1-.1h-2.15a.1.1 0 0 0-.1.1v1.9M2.8 14h18.4" stroke="#1A1A1A" stroke-width="1.4"/><path d="M21.3 2.7v16.8a.5.5 0 0 1-.5.5H3.2a.5.5 0 0 1-.5-.5V2.7" stroke="#1A1A1A" stroke-width="1.4" stroke-linecap="square"/></svg>