<svg width="24" height="24" viewBox="0 0 24 24" fill="none" xmlns="http://www.w3.org/2000/svg"><path d="M18 19.2V22M6 19.2V22" stroke="#1A1A1A" stroke-width="1.4"/><path d="M3.7 8v10.8a.5.5 0 0 0 .5.5h15.6a.5.5 0 0 0 .5-.5V8" stroke="#1A1A1A" stroke-width="1.4" stroke-linecap="square"/><path d="M12 7.5V3.944c0-.515-.21-1.01-.586-1.374A2.03 2.03 0 0 0 10 2c-.53 0-1.04.205-1.414.57A1.912 1.912 0 0 0 8 3.944" stroke="#1A1A1A" stroke-width="1.4" stroke-linecap="square" stroke-linejoin="round"/><path d="M12 8v11.5m-2-7.1V10m4 0v2.4M2 7.7h20" stroke="#1A1A1A" stroke-width="1.4"/><path d="m18.5 7.5.426-3.235a.5.5 0 0 0-.496-.565h-2.86a.5.5 0 0 0-.496.565L15.5 7.5" stroke="#1A1A1A" stroke-width="1.4" stroke-linecap="square"/></svg>