<svg width="48" height="48" viewBox="0 0 48 48" fill="none" xmlns="http://www.w3.org/2000/svg"><circle cx="24" cy="24" r="24" fill="#E9EEF3"/><path fill-rule="evenodd" clip-rule="evenodd" d="M13 16.5a.5.5 0 0 1 .5-.5h16a.5.5 0 0 1 .5.5v2h2v-2a.5.5 0 0 1 .5-.5h4a.5.5 0 0 1 .5.5v10a.5.5 0 0 1-.5.5h-4a.5.5 0 0 1-.5-.5v-2h-2v8a.5.5 0 0 1-.5.5h-16a.5.5 0 0 1-.5-.5v-16ZM32 23h-2v-3h2v3Zm-14.5-2a.5.5 0 0 0-.5.5v1.8a.5.5 0 0 0 .5.5h1.24a.5.5 0 0 0 .5-.5v-1.8a.5.5 0 0 0-.5-.5H17.5Z" fill="#3E566F"/></svg>