<svg width="32" height="32" viewBox="0 0 32 32" fill="none" xmlns="http://www.w3.org/2000/svg">
<g clip-path="url(#clip0_2407_3539)">
<path d="M4.14062 8.14168C4.14062 7.665 4.47708 7.25459 4.94451 7.1611L12.9445 5.5611C13.5633 5.43734 14.1406 5.91064 14.1406 6.54168V26.1529H4.14062V8.14168Z" fill="#FFC8A3"/>
<path d="M18.6367 9.65565C18.6367 9.02886 19.2067 8.55658 19.8226 8.67307L26.8226 9.99707C27.2948 10.0864 27.6367 10.499 27.6367 10.9797V26.1529H18.6367V9.65565Z" fill="#FFC8A3"/>
<path d="M21.6367 14.2696H24.6367V17.2696H21.6367V14.2696Z" fill="white"/>
<path d="M7.64062 11.2697H10.6406V14.2697H7.64062V11.2697Z" fill="white"/>
<path d="M10.6367 11.3511C10.6367 10.7272 11.2018 10.2556 11.8156 10.3672L20.8156 12.0035C21.2911 12.09 21.6367 12.5041 21.6367 12.9874V26.1528H10.6367V11.3511Z" fill="#FF6905"/>
<path d="M14.6367 15.6006H17.6367V18.6006H14.6367V15.6006Z" fill="white"/>
</g>
<defs>
<clipPath id="clip0_2407_3539">
<rect width="32" height="32" fill="white"/>
</clipPath>
</defs>
</svg>
