<svg width="28" height="28" viewBox="0 0 28 28" fill="none" xmlns="http://www.w3.org/2000/svg">
<path fill-rule="evenodd" clip-rule="evenodd" d="M0 4.50018C0 4.22404 0.223858 4.00018 0.5 4.00018H19.5C19.7761 4.00018 20 4.22404 20 4.50018V7.00018H22V4.50018C22 4.22404 22.2239 4.00018 22.5 4.00018H27.5C27.7761 4.00018 28 4.22404 28 4.50018V16.5002C28 16.7763 27.7761 17.0002 27.5 17.0002H22.5C22.2239 17.0002 22 16.7763 22 16.5002V14.0002H20V23.5002C20 23.7763 19.7761 24.0002 19.5 24.0002H0.5C0.223857 24.0002 0 23.7763 0 23.5002V4.50018ZM22 12.0002H20V9.00018H22V12.0002ZM4.5 10.0002C4.22386 10.0002 4 10.224 4 10.5002V12.5002C4 12.7763 4.22386 13.0002 4.5 13.0002H6.5C6.77614 13.0002 7 12.7763 7 12.5002V10.5002C7 10.224 6.77614 10.0002 6.5 10.0002H4.5Z" fill="#1A1A1A"/>
</svg>
