<svg width="28" height="28" viewBox="0 0 28 28" fill="none" xmlns="http://www.w3.org/2000/svg">
<rect x="6" y="3" width="16.8" height="22.4" stroke="#1A1A1A" stroke-width="1.4" stroke-linejoin="round"/>
<rect x="10.2" y="7.20001" width="8.4" height="4.2" stroke="#1A1A1A" stroke-width="1.4" stroke-linejoin="round"/>
<path d="M11.402 16.09C11.7306 16.09 11.997 15.8237 11.997 15.495C11.997 15.1664 11.7306 14.9 11.402 14.9C11.0734 14.9 10.807 15.1664 10.807 15.495C10.807 15.8237 11.0734 16.09 11.402 16.09Z" fill="#1A1A1A" stroke="#1A1A1A" stroke-width="2.1" stroke-linecap="round" stroke-linejoin="round"/>
<path d="M17.3985 16.09C17.7271 16.09 17.9935 15.8237 17.9935 15.495C17.9935 15.1664 17.7271 14.9 17.3985 14.9C17.0698 14.9 16.8035 15.1664 16.8035 15.495C16.8035 15.8237 17.0698 16.09 17.3985 16.09Z" fill="#1A1A1A" stroke="#1A1A1A" stroke-width="2.1" stroke-linecap="round" stroke-linejoin="round"/>
<path d="M11.4017 21.3867C11.7303 21.3867 11.9967 21.1203 11.9967 20.7917C11.9967 20.463 11.7303 20.1967 11.4017 20.1967C11.0731 20.1967 10.8067 20.463 10.8067 20.7917C10.8067 21.1203 11.0731 21.3867 11.4017 21.3867Z" fill="#1A1A1A" stroke="#1A1A1A" stroke-width="2.1" stroke-linecap="round" stroke-linejoin="round"/>
<path d="M17.3983 21.3867C17.727 21.3867 17.9933 21.1203 17.9933 20.7917C17.9933 20.463 17.727 20.1967 17.3983 20.1967C17.0697 20.1967 16.8033 20.463 16.8033 20.7917C16.8033 21.1203 17.0697 21.3867 17.3983 21.3867Z" fill="#1A1A1A" stroke="#1A1A1A" stroke-width="2.1" stroke-linecap="round" stroke-linejoin="round"/>
</svg>
