<svg width="24" height="24" viewBox="0 0 24 24" fill="none" xmlns="http://www.w3.org/2000/svg"><path d="M3.7 13h16.6v6.3H3.7V13Z" fill="white"/><path d="m17.3 19.3 2.2 2.2M6.6 19.3l-2.1 2.2" stroke="#1A1A1A" stroke-width="1.4" stroke-linejoin="round"/><path d="M8 17a1 1 0 1 0 0-2 1 1 0 0 0 0 2Zm8 0a1 1 0 1 0 0-2 1 1 0 0 0 0 2Z" fill="#1A1A1A"/><path d="M3.7 2.8a.1.1 0 0 1 .1-.1h16.4a.1.1 0 0 1 .1.1v16.4a.1.1 0 0 1-.1.1H3.8a.1.1 0 0 1-.1-.1V2.8ZM3.5 13h17M12 2.7V13" stroke="#1A1A1A" stroke-width="1.4"/></svg>