<svg width="20" height="20" viewBox="0 0 20 20" fill="none" xmlns="http://www.w3.org/2000/svg">
<mask id="path-1-outside-1_22294_51902" maskUnits="userSpaceOnUse" x="1.42175" y="1.42169" width="18" height="18" fill="black">
<rect fill="white" x="1.42175" y="1.42169" width="18" height="18"/>
<path fill-rule="evenodd" clip-rule="evenodd" d="M10.0001 10.9899L16.5884 17.5783L17.5784 16.5884L10.99 10L17.5784 3.41164L16.5884 2.42169L10.0001 9.01005L3.4117 2.42169L2.42175 3.41164L9.01011 10L2.42175 16.5884L3.4117 17.5783L10.0001 10.9899Z"/>
</mask>
<path fill-rule="evenodd" clip-rule="evenodd" d="M10.0001 10.9899L16.5884 17.5783L17.5784 16.5884L10.99 10L17.5784 3.41164L16.5884 2.42169L10.0001 9.01005L3.4117 2.42169L2.42175 3.41164L9.01011 10L2.42175 16.5884L3.4117 17.5783L10.0001 10.9899Z" fill="white"/>
<path d="M16.5884 17.5783L15.8813 18.2854C16.2718 18.6759 16.905 18.6759 17.2955 18.2854L16.5884 17.5783ZM10.0001 10.9899L10.7072 10.2828C10.3166 9.89232 9.68348 9.89232 9.29296 10.2828L10.0001 10.9899ZM17.5784 16.5884L18.2855 17.2955C18.676 16.9049 18.676 16.2718 18.2855 15.8813L17.5784 16.5884ZM10.99 10L10.2829 9.29289C10.0954 9.48043 9.99001 9.73478 9.99001 10C9.99001 10.2652 10.0954 10.5196 10.2829 10.7071L10.99 10ZM17.5784 3.41164L18.2855 4.11875C18.676 3.72822 18.676 3.09506 18.2855 2.70453L17.5784 3.41164ZM16.5884 2.42169L17.2955 1.71459C17.108 1.52705 16.8536 1.42169 16.5884 1.42169C16.3232 1.42169 16.0689 1.52705 15.8813 1.71459L16.5884 2.42169ZM10.0001 9.01005L9.29296 9.71716C9.68348 10.1077 10.3166 10.1077 10.7072 9.71716L10.0001 9.01005ZM3.4117 2.42169L4.11881 1.71459C3.72829 1.32406 3.09512 1.32406 2.7046 1.71458L3.4117 2.42169ZM2.42175 3.41164L1.71465 2.70453C1.52711 2.89207 1.42175 3.14642 1.42175 3.41164C1.42175 3.67686 1.52711 3.93121 1.71465 4.11875L2.42175 3.41164ZM9.01011 10L9.71722 10.7071C9.90476 10.5196 10.0101 10.2652 10.0101 10C10.0101 9.73478 9.90476 9.48043 9.71722 9.29289L9.01011 10ZM2.42175 16.5884L1.71465 15.8813C1.52711 16.0688 1.42175 16.3231 1.42175 16.5884C1.42175 16.8536 1.52711 17.1079 1.71465 17.2955L2.42175 16.5884ZM3.4117 17.5783L2.7046 18.2854C3.09512 18.6759 3.72828 18.6759 4.11881 18.2854L3.4117 17.5783ZM17.2955 16.8712L10.7072 10.2828L9.29296 11.6971L15.8813 18.2854L17.2955 16.8712ZM16.8713 15.8813L15.8813 16.8712L17.2955 18.2854L18.2855 17.2955L16.8713 15.8813ZM10.2829 10.7071L16.8713 17.2955L18.2855 15.8813L11.6971 9.29289L10.2829 10.7071ZM16.8713 2.70453L10.2829 9.29289L11.6971 10.7071L18.2855 4.11875L16.8713 2.70453ZM15.8813 3.1288L16.8713 4.11875L18.2855 2.70453L17.2955 1.71459L15.8813 3.1288ZM10.7072 9.71716L17.2955 3.1288L15.8813 1.71459L9.29296 8.30294L10.7072 9.71716ZM2.7046 3.1288L9.29296 9.71716L10.7072 8.30294L4.11881 1.71459L2.7046 3.1288ZM3.12886 4.11875L4.11881 3.1288L2.7046 1.71458L1.71465 2.70453L3.12886 4.11875ZM9.71722 9.29289L3.12886 2.70453L1.71465 4.11875L8.30301 10.7071L9.71722 9.29289ZM3.12886 17.2955L9.71722 10.7071L8.30301 9.29289L1.71465 15.8813L3.12886 17.2955ZM4.11881 16.8712L3.12886 15.8813L1.71465 17.2955L2.7046 18.2854L4.11881 16.8712ZM9.29296 10.2828L2.7046 16.8712L4.11881 18.2854L10.7072 11.6971L9.29296 10.2828Z" fill="#1A1A1A" fill-opacity="0.6" mask="url(#path-1-outside-1_22294_51902)"/>
</svg>
