<svg width="28" height="28" viewBox="0 0 28 28" fill="none" xmlns="http://www.w3.org/2000/svg">
<path fill-rule="evenodd" clip-rule="evenodd" d="M2 10.0695C2 9.90022 2.08563 9.74245 2.22755 9.65022L13.7276 2.17706C13.8932 2.0694 14.1068 2.0694 14.2724 2.17706L25.7724 9.65022C25.9144 9.74245 26 9.90022 26 10.0695V25.5C26 25.7762 25.7761 26 25.5 26H2.5C2.22386 26 2 25.7762 2 25.5V10.0695ZM9.20015 14.0515C9.20015 13.7754 9.42401 13.5515 9.70015 13.5515H11.7002C11.9763 13.5515 12.2002 13.7754 12.2002 14.0515V16.6515C12.2002 16.9277 11.9763 17.1515 11.7002 17.1515H9.70015C9.42401 17.1515 9.20015 16.9277 9.20015 16.6515V14.0515ZM16.2998 13.5515C16.0237 13.5515 15.7998 13.7754 15.7998 14.0515V16.6515C15.7998 16.9277 16.0237 17.1515 16.2998 17.1515H18.2998C18.576 17.1515 18.7998 16.9277 18.7998 16.6515V14.0515C18.7998 13.7754 18.576 13.5515 18.2998 13.5515H16.2998Z" fill="#1A1A1A"/>
</svg>
