<svg width="32" height="32" viewBox="0 0 32 32" fill="none" xmlns="http://www.w3.org/2000/svg">
<path d="M5.47218 14.5043C5.47218 14.1922 5.61788 13.898 5.86613 13.7089L10.1392 10.4532C10.4972 10.1805 10.9933 10.1805 11.3513 10.4532L15.6243 13.7089C15.8726 13.898 16.0183 14.1922 16.0183 14.5043V26.9523H5.47218V14.5043Z" fill="#FFC49D"/>
<path d="M12.7651 10.6853C12.7651 10.3706 12.9133 10.0742 13.1651 9.88534L19.3488 5.24762C19.7043 4.98096 20.1932 4.98096 20.5488 5.24762L26.7324 9.88534C26.9842 10.0742 27.1324 10.3706 27.1324 10.6853V26.9524H12.7651V10.6853Z" fill="#FF6905"/>
<path d="M17.9487 12.875H21.9487V16.875H17.9487V12.875Z" fill="white"/>
<path d="M8.97266 23.4523C8.97266 25.3853 7.40517 26.9523 5.47218 26.9523C3.53918 26.9523 1.97266 25.3853 1.97266 23.4523C1.97266 21.5194 3.53966 19.9523 5.47266 19.9523C7.40565 19.9523 8.97266 21.5194 8.97266 23.4523Z" fill="#1F9B38"/>
<path d="M24.2417 26.9291L26.1699 19.8592C26.4378 18.8767 27.8314 18.8767 28.0994 19.8592L30.0275 26.9291H24.2417Z" fill="#1F9B38"/>
</svg>
