<svg width="48" height="48" viewBox="0 0 48 48" fill="none" xmlns="http://www.w3.org/2000/svg"><circle cx="24" cy="24" r="24" fill="#FFF7F0"/><path fill-rule="evenodd" clip-rule="evenodd" d="M14 20.77a.5.5 0 0 1 .228-.42l9.5-6.173a.5.5 0 0 1 .544 0l9.5 6.174a.5.5 0 0 1 .228.419V33.5a.5.5 0 0 1-.5.5h-19a.5.5 0 0 1-.5-.5V20.77Zm6 3.436a.5.5 0 0 1 .5-.5H22a.5.5 0 0 1 .5.5v2a.5.5 0 0 1-.5.5h-1.5a.5.5 0 0 1-.5-.5v-2Zm6-.5a.5.5 0 0 0-.5.5v2a.5.5 0 0 0 .5.5h1.5a.5.5 0 0 0 .5-.5v-2a.5.5 0 0 0-.5-.5H26Z" fill="#FF6905"/></svg>