<svg width="24" height="24" viewBox="0 0 24 24" fill="none" xmlns="http://www.w3.org/2000/svg"><path fill-rule="evenodd" clip-rule="evenodd" d="M10.104 8.5a.094.094 0 0 0-.091.096v4.902c0 .053.04.096.091.096h.858c.05 0 .091-.043.091-.096V11.29h.786c.05 0 .092-.043.092-.096v-.715a.094.094 0 0 0-.092-.095h-.786V8.596a.094.094 0 0 0-.091-.096h-.858Zm6.947 0a.094.094 0 0 0-.092.096v6.808c0 .053.041.096.092.096h.857a.094.094 0 0 0 .092-.096V8.596a.094.094 0 0 0-.092-.096h-.857Zm-3.2.389c.22-.074.455-.111.709-.111.254 0 .489.037.705.11.215.075.404.179.564.313a1.41 1.41 0 0 1 .51 1.103 1.404 1.404 0 0 1-.51 1.095c-.16.134-.349.238-.564.312a2.152 2.152 0 0 1-.705.112c-.254 0-.49-.037-.708-.112a1.718 1.718 0 0 1-.565-.312 1.48 1.48 0 0 1-.375-.48 1.373 1.373 0 0 1-.138-.615c0-.222.046-.429.138-.618a1.47 1.47 0 0 1 .375-.485c.158-.134.347-.238.565-.312Zm-7.76.159A.094.094 0 0 0 6 9.143v3.23c0 .052.041.095.092.095h.774c.259-.001.496-.004.712-.007.289-.005.552-.017.79-.034a8.427 8.427 0 0 0 1.234-.176.095.095 0 0 0 .072-.105l-.082-.686a.092.092 0 0 0-.11-.082 7.048 7.048 0 0 1-.487.087 10.781 10.781 0 0 1-1.214.1c-.224.008-.473.012-.747.012V9.93h1.929c.05 0 .091-.042.091-.095v-.693a.094.094 0 0 0-.091-.095H6.092Zm10.485 2.86c.052-.008.1.031.105.086l.05.627a.095.095 0 0 1-.074.102c-.256.052-.513.095-.771.131-.258.036-.517.066-.777.09v2.258a.094.094 0 0 1-.091.095h-.858a.094.094 0 0 1-.092-.095V13.01a51.731 51.731 0 0 1-1.489.028.093.093 0 0 1-.09-.082l-.096-.715c-.007-.057.035-.109.091-.109.273 0 .57-.002.892-.007a39.86 39.86 0 0 0 1.06-.03c.364-.015.732-.038 1.106-.068.355-.028.7-.068 1.034-.12Zm-9.794 1.065a.094.094 0 0 0-.092.095v2.224c0 .053.041.095.092.095h4.417c.05 0 .092-.042.092-.095v-.693a.094.094 0 0 0-.092-.095H7.731v-1.436a.094.094 0 0 0-.091-.095h-.858ZM13.99 9.84c.143-.108.332-.164.57-.164.238 0 .426.056.57.164.14.105.211.257.211.464 0 .196-.07.344-.21.449-.145.108-.333.163-.571.163-.238 0-.427-.055-.57-.163a.526.526 0 0 1-.211-.45c0-.206.071-.358.21-.463Z" fill="#1A1A1A"/><path d="m7.455 1.701-1.5 3.206a9.405 9.405 0 0 1 6.044-2.176c5.136 0 9.299 4.058 9.299 9.063 0 1.89-.593 3.643-1.608 5.096m-3.781 5.409 1.06-2.844a9.432 9.432 0 0 1-4.97 1.402c-5.136 0-9.3-4.058-9.3-9.063 0-1.402.327-2.729.91-3.914" stroke="#1A1A1A" stroke-width="1.4" stroke-linecap="square" stroke-linejoin="round"/></svg>