<svg width="28" height="28" viewBox="0 0 28 28" fill="none" xmlns="http://www.w3.org/2000/svg"><path d="M7.828 18.023A.1.1 0 0 0 7.764 18H4.1a.1.1 0 0 1-.1-.1v-7.8a.1.1 0 0 1 .1-.1h3.664a.1.1 0 0 0 .064-.023l6.308-5.24a.1.1 0 0 1 .164.076v18.374a.1.1 0 0 1-.164.077l-6.308-5.24Z" stroke="#1A1A1A" stroke-width="1.4" stroke-linecap="round"/><path d="M20 6.516A8.991 8.991 0 0 1 24 14a8.98 8.98 0 0 1-3.207 6.888M17.6 9.669A4.998 4.998 0 0 1 20.1 14a4.998 4.998 0 0 1-2.5 4.331M4 4l20 20" stroke="#1A1A1A" stroke-width="1.4"/></svg>