<svg width="24" height="24" viewBox="0 0 24 24" fill="none" xmlns="http://www.w3.org/2000/svg"><path fill-rule="evenodd" clip-rule="evenodd" d="M12.142 2.835a.2.2 0 0 0-.28 0L5.14 9.365a.2.2 0 0 0-.008.278L8.663 13.5h6.673l3.533-3.857a.2.2 0 0 0-.008-.278l-6.72-6.53Z" fill="white" stroke="#1A1A1A" stroke-width="1.4"/><path d="M7.5 12.7H5.8a.1.1 0 0 0-.1.1v1.7a.8.8 0 0 0 .8.8h11a.8.8 0 0 0 .8-.8v-1.7a.1.1 0 0 0-.1-.1h-1.7" stroke="#1A1A1A" stroke-width="1.4" stroke-linecap="square"/><path d="M5.5 10.7H2.8a.1.1 0 0 0-.1.1v10.4a.1.1 0 0 0 .1.1h18.4a.1.1 0 0 0 .1-.1V10.8a.1.1 0 0 0-.1-.1h-2.7" stroke="#1A1A1A" stroke-width="1.4" stroke-linecap="square"/></svg>