<svg width="66" height="20" viewBox="0 0 66 20" fill="none" xmlns="http://www.w3.org/2000/svg">
<rect width="66" height="20" rx="4" fill="#1A1A1A" fill-opacity="0.6"/>
<path d="M23 7.98231C23 5.83147 21.5009 4.5 19.0894 4.5H12.7579L9.18249 12.5354L5.58845 4.5H3L8.09311 15.55H10.2998L14.3873 6.56704H18.8939C20.1322 6.56704 20.7095 7.01397 20.7095 7.973C20.7095 8.93203 20.1043 9.40689 18.9218 9.40689L14.7598 9.43482L14.76 11.4926H17.7114L20.3184 15.55H22.9348L20.1881 11.3808C21.9479 11.0363 23 9.77933 23 8.00093V7.98231Z" fill="white"/>
<path d="M32.7266 5.4707C32.7197 6.96777 34.7568 8.18457 36.9102 8.47852L36.4863 9.32617C34.5244 9.03906 32.6855 8.06152 32.0293 6.63965C31.3662 8.06152 29.541 9.03906 27.5723 9.32617L27.1758 8.47852C29.3154 8.18457 31.3389 6.96777 31.332 5.4707V5.44336H27.5039V4.56836H36.582V5.44336H32.7266V5.4707ZM26.4785 11.1035V10.2148H37.6074V11.1035H32.6582V13.5918H31.5918V11.1035H26.4785ZM27.9004 15.8477V12.375H28.9805V14.9453H36.3633V15.8477H27.9004ZM48.6133 3.95312V16.1348H47.5332V3.95312H48.6133ZM39.3027 13.1953V4.99219H40.3691V8.20508H43.9922V4.99219H45.0449V13.1953H39.3027ZM40.3691 12.293H43.9922V9.06641H40.3691V12.293ZM61.7656 9.64062V10.5293H56.748V11.8281C59.0381 11.9307 60.3984 12.6758 60.4121 13.9609C60.3984 15.3213 58.833 16.0801 56.2285 16.0801C53.5898 16.0801 52.0244 15.3213 52.0312 13.9609C52.0244 12.6758 53.3779 11.9307 55.6953 11.8281V10.5293H50.6914V9.64062H61.7656ZM51.3203 8.05469C53.4258 7.83594 55.4561 6.7627 55.5312 5.40234H51.7031V4.52734H60.7812V5.40234H56.9258C57.001 6.7627 59.0107 7.83594 61.1504 8.05469L60.7539 8.90234C58.7646 8.66309 56.8984 7.76758 56.2285 6.4209C55.5586 7.76758 53.7061 8.66309 51.7031 8.90234L51.3203 8.05469ZM53.125 13.9609C53.1113 14.7676 54.2803 15.2529 56.2285 15.2461C58.1562 15.2529 59.3252 14.7676 59.332 13.9609C59.3252 13.1338 58.1562 12.6621 56.2285 12.6484C54.2803 12.6621 53.1113 13.1338 53.125 13.9609Z" fill="white"/>
</svg>
