<svg width="24" height="24" viewBox="0 0 24 24" fill="none" xmlns="http://www.w3.org/2000/svg">
<path fill-rule="evenodd" clip-rule="evenodd" d="M15.6297 21.4117L14.9518 20.0859C15.2689 19.82 15.4709 19.4219 15.4709 18.9777C15.4709 18.1953 14.8449 17.5563 14.0657 17.5307C14.0576 17.5302 14.0496 17.5294 14.0413 17.5294H12.2802C12.1377 17.5294 12.0126 17.6027 11.9401 17.7134C11.9366 17.7185 11.9331 17.7246 11.9296 17.7306C11.9265 17.7357 11.9235 17.7409 11.9207 17.7462C11.9199 17.7477 11.9192 17.7487 11.9184 17.7503L10.4081 20.7036L8.89767 17.7503C8.79581 17.5513 8.55139 17.4725 8.35154 17.5735C8.15175 17.6749 8.07227 17.9186 8.17413 18.1176L10.0463 21.7783C10.1179 21.9183 10.26 21.9988 10.4075 21.9992C10.4076 21.9992 10.4077 21.9993 10.4078 21.9993H10.4081H10.4085C10.4086 21.9993 10.4086 21.9992 10.4087 21.9992C10.5562 21.9988 10.6984 21.9181 10.7699 21.7783L12.529 18.3385H14.0172C14.3711 18.3385 14.6589 18.6252 14.6589 18.9777C14.6589 19.3302 14.3711 19.617 14.0172 19.617H13.0178C12.7937 19.617 12.6118 19.7981 12.6118 20.0215C12.6118 20.2449 12.7937 20.426 13.0178 20.426H14.0172C14.0819 20.426 14.1454 20.4214 14.2077 20.4132L14.9062 21.779C14.9779 21.9192 15.1205 22 15.2683 22C15.3303 22 15.3932 21.9857 15.4523 21.9558C15.6521 21.8544 15.7316 21.6108 15.6297 21.4117Z" fill="#1A1A1A"/>
<path fill-rule="evenodd" clip-rule="evenodd" d="M14.7309 11.8823L10.2515 14.7059V9.05881L14.7309 11.8823Z" fill="#1A1A1A" stroke="#1A1A1A" stroke-width="1.39434" stroke-linecap="round" stroke-linejoin="round"/>
<path d="M17.8604 19.4243C20.0764 17.6852 21.5 14.9822 21.5 11.9468C21.5 6.70007 17.2467 2.44678 12 2.44678C6.75329 2.44678 2.5 6.70007 2.5 11.9468C2.5 14.8941 3.8422 17.528 5.94871 19.2705" stroke="#1A1A1A" stroke-width="1.33" stroke-linecap="round" stroke-linejoin="round"/>
</svg>
