<svg width="40" height="40" viewBox="0 0 40 40" fill="none" xmlns="http://www.w3.org/2000/svg"><path fill-rule="evenodd" clip-rule="evenodd" d="M7.837 10.665a18.613 18.613 0 0 0-2.362 1.753 13.369 13.369 0 0 0-.934.904l-.052.057-.014.017-.005.005-.001.002c-.001.001-.001.001.531.456l-.532-.455-.455.533 1.065.909.454-.532.008-.01.036-.04a11.98 11.98 0 0 1 .823-.795 17.405 17.405 0 0 1 2.455-1.787l-1.017-1.017Zm4.942 4.943c-.228.126-.445.254-.65.382a12.932 12.932 0 0 0-1.983 1.515 9.41 9.41 0 0 0-.64.66 3.986 3.986 0 0 0-.036.044l-.01.013-.004.005-.002.001.546.439-.547-.438-.437.547 1.093.875.437-.546.004-.005a8.006 8.006 0 0 1 .554-.574c.389-.364.978-.856 1.767-1.35.288-.179.602-.36.943-.533l-1.035-1.036Zm5.366-.292-1.219-1.218A15.68 15.68 0 0 1 20 13.8c3.486 0 6.113 1.091 7.871 2.19a12.935 12.935 0 0 1 1.983 1.515 9.379 9.379 0 0 1 .64.66l.036.044.01.013.004.005.002.001-.546.439.547-.438.437.547-1.093.875-.436-.546h-.001v-.001l-.003-.004-.01-.01-.012-.016a8.006 8.006 0 0 0-.532-.548 11.525 11.525 0 0 0-1.768-1.35C25.553 16.193 23.18 15.2 20 15.2a14.6 14.6 0 0 0-1.855.117Zm-.312 5.346 1.139 1.138a5.308 5.308 0 0 0-2.285 1.08 5.881 5.881 0 0 0-.837.818 4.512 4.512 0 0 0-.248.327l-.009.014-.37.592-1.188-.742.371-.593.594.37a75.75 75.75 0 0 1-.593-.37v-.002h.001l.002-.005.007-.01.02-.03a5.911 5.911 0 0 1 .338-.447 7.282 7.282 0 0 1 1.038-1.015 6.84 6.84 0 0 1 2.02-1.125ZM12.71 9.882l-1.093-1.094C13.877 7.931 16.672 7.3 20 7.3c5.143 0 9.014 1.508 11.604 3.025a18.965 18.965 0 0 1 2.92 2.093 13.402 13.402 0 0 1 .935.904l.052.057.014.017.005.005.001.002h.001l-.491.421.492-.42.454.533-1.065.909-.454-.532-.008-.01a12.013 12.013 0 0 0-.86-.835 17.563 17.563 0 0 0-2.704-1.936C28.486 10.121 24.857 8.7 20 8.7c-2.853 0-5.283.49-7.29 1.181ZM20 31.432a1.933 1.933 0 1 0 0-3.866 1.933 1.933 0 0 0 0 3.866Zm0 1.4a3.333 3.333 0 1 0 0-6.666 3.333 3.333 0 0 0 0 6.666Z" fill="#CCCCCC"/><path d="M8.495 7.505 8 7.01 7.01 8l.495.495.99-.99Zm23.01 24.99.495.495.99-.99-.495-.495-.99.99Zm-24-24 24 24 .99-.99-24-24-.99.99Z" fill="#CCCCCC"/></svg>