<svg width="135" height="24" viewBox="0 0 135 24" fill="none" xmlns="http://www.w3.org/2000/svg">
<path d="M23.4336 8.01603C23.4336 7.50963 23.292 7.22404 22.8864 6.91924L14.4048 0.508822C14.04 0.244822 13.6752 0.244822 13.308 0.508822L9.2712 3.55203C7.3224 2.86323 5.5776 2.49603 4.1592 2.49603C1.5816 2.49603 0 3.73444 0 5.74324C0 7.75204 1.5024 10.308 4.2 13.0056V19.2552C4.2 19.6608 4.4832 19.944 4.8888 19.944H13.7952C17.5896 22.0128 21.0384 23.1096 23.5536 23.1096C26.0688 23.1096 27.6936 21.8928 27.6936 19.8624C27.6936 17.832 26.1528 15.2976 23.4336 12.5784V8.01363V8.01603ZM22.824 18.5064C22.824 18.912 22.5408 19.1952 22.1352 19.1952H13.9176C10.5096 17.328 7.2216 14.9952 4.848 12.6216V8.23924C4.848 7.73284 4.9896 7.44723 5.3952 7.14243L9.6144 3.97684C13.8552 5.58004 19.5552 9.25202 22.8216 12.54V18.504L22.824 18.5064Z" fill="black"/>
<path d="M53.544 5.3616H50.3184V18.06H53.544V5.3616Z" fill="black"/>
<path d="M52.0559 0H51.8063C50.7479 0 49.9175 0.852019 49.9175 1.93922C49.9175 3.02642 50.7479 3.87841 51.8063 3.87841H52.0559C53.1143 3.87841 53.9447 3.02642 53.9447 1.93922C53.9447 0.852019 53.1143 0 52.0559 0Z" fill="black"/>
<path d="M39.2686 15.0144L47.6854 7.96563L47.7166 7.93923V5.3616H34.6654V8.23442H42.7366V8.40722L34.3198 15.456L34.291 15.48V18.06H48.091V15.1848H39.2686V15.0144Z" fill="black"/>
<path d="M66.7963 7.07519H66.6331C65.8747 5.77919 64.4707 5.03519 62.5675 5.03519H62.5171C58.6651 5.03519 55.8667 7.83121 55.8667 11.6856C55.8667 15.54 58.6627 18.336 62.5171 18.336H62.5411C64.9147 18.336 66.0475 17.2104 66.5803 16.296H66.7435V18.1008C66.7435 20.0376 65.3947 21.1512 63.0427 21.1512H62.9683C61.1923 21.1512 59.8435 20.556 58.7203 19.2744L58.6675 19.212L56.3323 21.1752L56.3923 21.24C58.0987 23.0976 60.2827 24 63.0691 24H63.1195C67.3459 24 69.9691 21.72 69.9691 18.0528V5.36399H66.7939V7.07759L66.7963 7.07519ZM66.7963 10.86V12.5136C66.7963 14.208 65.2387 15.4872 63.1699 15.4872H62.9683C60.7507 15.4872 59.1427 13.8888 59.1427 11.6856C59.1427 9.48241 60.7507 7.88399 62.9683 7.88399H63.1699C65.2363 7.88399 66.7963 9.16319 66.7963 10.8576V10.86Z" fill="black"/>
<path d="M112.843 5.03519H112.742C110.297 5.03519 109.128 6.2016 108.576 7.1496H108.415V5.36158H105.24V18.06H108.465V11.3592C108.465 9.37441 109.958 7.93441 112.015 7.93441H112.291C114.357 7.93441 115.591 9.37439 115.591 11.7864V18.06H118.817V11.3088C118.817 7.49759 116.472 5.03519 112.843 5.03519V5.03519Z" fill="black"/>
<path d="M131.769 5.36158V7.07519H131.609C130.85 5.77919 129.446 5.03519 127.543 5.03519H127.493C123.641 5.03519 120.842 7.83121 120.842 11.6856C120.842 15.54 123.638 18.336 127.493 18.336H127.517C129.89 18.336 131.023 17.2104 131.556 16.296H131.717V18.1008C131.717 20.0376 130.368 21.1512 128.016 21.1512H127.941C126.165 21.1512 124.817 20.556 123.693 19.2744L123.641 19.212L121.305 21.1752L121.365 21.24C123.072 23.0976 125.256 24 128.042 24H128.093C132.319 24 134.942 21.72 134.942 18.0528V5.36399H131.767L131.769 5.36158ZM131.769 10.8576V12.5112C131.769 14.2056 130.212 15.4848 128.143 15.4848H127.941C125.724 15.4848 124.116 13.8864 124.116 11.6832C124.116 9.48 125.726 7.88158 127.941 7.88158H128.143C130.209 7.88158 131.769 9.16079 131.769 10.8552V10.8576Z" fill="black"/>
<path d="M80.1764 5.08562H80.1524C78.2516 5.08562 76.7756 5.8296 75.9884 7.0752H75.8252V0H72.5996V18.06H75.7748V16.3464H75.9356C76.4588 17.2608 77.5916 18.3864 80.0252 18.3864H80.0756C83.9588 18.3864 86.7764 15.5784 86.7764 11.712C86.7764 7.84561 84.002 5.08802 80.1764 5.08802V5.08562ZM83.5004 11.7096C83.5004 13.9272 81.8708 15.5352 79.6244 15.5352H79.4228C77.3084 15.5352 75.7724 14.2848 75.7724 12.5616V10.8576C75.7724 9.1896 77.342 7.93441 79.4228 7.93441H79.6244C81.8348 7.93441 83.5004 9.55681 83.5004 11.7096Z" fill="black"/>
<path d="M99.4533 7.07519H99.2925C98.7693 6.16079 97.6365 5.03519 95.2029 5.03519H95.1525C91.2693 5.03519 88.4517 7.8432 88.4517 11.7096C88.4517 15.576 91.2693 18.384 95.1525 18.384H95.2029C97.6365 18.384 98.7693 17.2584 99.2925 16.344H99.4533V18.0576H102.628V5.35921H99.4533V7.07278V7.07519ZM99.4533 10.86V12.564C99.4533 14.2872 97.9173 15.5376 95.8029 15.5376H95.6013C93.3549 15.5376 91.7253 13.9296 91.7253 11.712C91.7253 9.4944 93.3549 7.88639 95.6013 7.88639H95.8029C97.9173 7.88639 99.4533 9.13679 99.4533 10.86Z" fill="black"/>
</svg>
