<svg xmlns="http://www.w3.org/2000/svg" width="56" height="20" viewBox="0 0 56 20" fill="none">
    <path d="M33.8516 18.2504H36.6246L38.6706 1.57944H35.8986L33.8516 18.2504Z" fill="#009D41" />
    <path
        d="M28.8417 8.36403C29.197 7.06396 29.4712 5.74308 29.6627 4.40903H33.2547L33.5687 1.84503H24.1887L23.8747 4.40903H26.8907C26.1907 9.34202 24.6377 12.909 21.7147 16.329L21.6147 16.452L23.9217 17.8L24.0017 17.707C25.3534 16.1283 26.481 14.3707 27.3527 12.484C28.1527 14.484 29.2077 16.245 30.4227 17.591L30.4977 17.674L32.8637 15.9L32.7637 15.8C30.9087 13.932 29.5177 11.293 28.8417 8.36403Z"
        fill="#009D41" />
    <path d="M51.814 11.1304H54.587L55.759 1.57944H52.987L51.814 11.1304Z" fill="#009D41" />
    <path
        d="M49.6682 3.25025L49.8412 1.85025H41.2773L40.9953 4.15025H46.7852C46.6878 4.49433 46.5589 4.82874 46.4002 5.14925H40.8723L40.6003 7.33324H44.4543C43.2413 8.16524 41.6453 8.70024 39.8143 8.87024L39.6143 8.88924L40.4633 11.0832L40.5563 11.0722C45.5002 10.5052 49.1642 7.36124 49.6682 3.25025Z"
        fill="#009D41" />
    <path
        d="M39.8062 18.1556H53.7241L54.5381 11.5286H40.6202L39.8062 18.1556ZM51.4711 13.9216L51.2451 15.7626H42.8922L43.1181 13.9216H51.4711Z"
        fill="#009D41" />
    <path
        d="M17.1007 4.351L9.16368 0.16C9.03128 0.0569595 8.86846 0.000694401 8.70068 0V20C8.70068 20 17.0837 16.274 17.4007 5.47099V4.95199C17.3999 4.83556 17.3725 4.72084 17.3205 4.61666C17.2685 4.51247 17.1933 4.42159 17.1007 4.351Z"
        fill="#26AC5D" />
    <path
        d="M8.22999 0.16002L0.294 4.35102C0.202634 4.42212 0.128672 4.51311 0.0777301 4.61707C0.0267879 4.72104 0.000205022 4.83524 0 4.95102L0 5.47002C0.313 16.274 8.69999 20 8.69999 20V2.05162e-05C8.52975 -0.00123488 8.3641 0.0551571 8.22999 0.16002Z"
        fill="#009D41" />
    <path
        d="M8.05527 13.3744L3.88428 9.20443L5.29928 7.78943L7.98627 10.4764L12.9943 4.96744L14.4743 6.31244L8.05527 13.3744Z"
        fill="white" />
</svg>
