<svg xmlns="http://www.w3.org/2000/svg" width="24" height="24" fill="none" viewBox="0 0 24 24"><path stroke="#1A1A1A" stroke-width="1.4" d="M21.18 10.5a.348.348 0 0 0-.082-.1c-.128-.098-5.475-2.887-5.475-2.887-.098-.075-.323-.113-.323-.113s-.225.038-.323.113L9.502 10.4a.526.526 0 0 0-.202.412v.36c.217 7.448 6 10.02 6 10.02s5.782-2.572 6-10.02v-.36s-.014-.057-.04-.131m-.08-.181c.033.057.06.123.08.18m-.08-.18.04.09.04.09"/><path stroke="#1A1A1A" stroke-width="1.4" d="M15.3 7.4s-.225.038-.323.113L9.502 10.4a.526.526 0 0 0-.202.412v.36c.217 7.448 6 10.02 6 10.02"/><path stroke="#1A1A1A" stroke-width="1.4" d="M16.7 6V2.8a.1.1 0 0 0-.1-.1H2.8a.1.1 0 0 0-.1.1v15.8a.1.1 0 0 0 .1.1h6.7"/><path stroke="#1A1A1A" stroke-linecap="square" stroke-width="1.4" d="M5.7 11.5h.8M5.7 8.5h2.8M5.7 5.5h7"/><path stroke="#1A1A1A" stroke-width="1.4" d="m12.6 14.3 2 2 4-4.5"/></svg>